<svg enable-background="new 0 0 661 100" viewBox="0 0 661 100" xmlns="http://www.w3.org/2000/svg"><g fill="#311"><path d="m153.8 0v1.5c0 .3.1.5.3.7 7.3 7.3 11.4 17.3 11.4 27.6v40.4c0 10.3-4.1 20.3-11.4 27.6-.2.2-.3.5-.3.7v1.5h11.7 26.5 11.7v-1.5c0-.3-.1-.5-.3-.7-7.3-7.3-11.4-17.3-11.4-27.6v-40.4c0-10.3 4.1-20.3 11.4-27.6.2-.2.3-.5.3-.7v-1.5z"/><path d="m267.7 1.9v-1.9h-11.7-26.5-11.7v1.9l2.9 2.9c5.6 5.7 8.8 13.3 8.8 21.3v20.3h-13.2c-3.9 0-7.1 3.2-7.1 7.1 11.2 0 20.3 9.1 20.3 20.3 0 8-3.2 15.7-8.8 21.3l-2.9 2.9v1.9h11.7 26.5 11.7v-1.9c-7.5-7.5-11.7-17.7-11.7-28.4v-39.4c.1-10.6 4.3-20.8 11.7-28.3z"/><path d="m323.5 0c-25 0-45.3 22.4-45.3 50s20.3 50 45.3 50 45.3-22.4 45.3-50-20.3-50-45.3-50zm0 96.9c-11 0-18.8-21-18.8-46.9s7.8-46.9 18.8-46.9 18.8 21 18.8 46.9-7.8 46.9-18.8 46.9z"/><path d="m466.4 80.4-3.5 3.5c-5.9 5.8-13.8 9.1-22 9.1-12.7 0-23.3-10.2-23.4-22.9 0-.1 0-.2 0-.3v-39.5c0-10.6 4.2-20.8 11.6-28.3v-2h-11.7-13.3-13.1-11.7v1.9c7.5 7.5 11.7 17.7 11.7 28.4v39.5c0 10.6-4.2 20.8-11.7 28.4v1.9h11.7 26.5 11.7 17.4 21.7v-7.1-12.6z"/><path d="m565.9 80.4-3.5 3.5c-5.9 5.8-13.8 9.1-22 9.1-12.7 0-23.3-10.2-23.4-22.9 0-.1 0-.2 0-.3v-39.5c0-10.6 4.2-20.8 11.6-28.3v-2h-11.6-13.3-13.3-11.7v1.9c7.5 7.5 11.7 17.7 11.7 28.4v39.5c0 10.6-4.2 20.8-11.7 28.4v1.9h11.7 26.6 11.7 17.4 21.7v-7.1-12.6z"/><path d="m602.2 1.9v-1.9h-49.9v1.9l11.7 11.8 29.9 65.7c2.9 6.3 1.5 13.8-3.3 18.7v1.9h12.7c13.7 0 22.7-14.1 17.1-26.5l-22.2-48.8c-3.6-7.7-1.9-16.8 4-22.8z"/><path d="m641.3 0h-19.6v1.9c3 3.1 6.6 5.3 10.4 6.6 5.4 1.9 9.2 6.9 9.2 12.7v.5l19.6-19.8v-1.9z"/><path d="m119.5 0h-119.5v1.9l11.7 11.8 29.9 65.7c2.9 6.3 1.5 13.8-3.3 18.7v1.9h12.7c13.7 0 22.7-14.1 17.1-26.5l-22.3-48.9c-3.5-7.6-1.8-16.7 4.1-22.7l11.7 11.8 29.9 65.7c2.9 6.3 1.5 13.8-3.3 18.7v1.9h12.7c13.7 0 22.7-14.1 17.1-26.5l-22.3-48.9c-3.5-7.6-1.8-16.7 4.1-22.7.1.1.2.2.3.3.3.3.5.5.8.8.2.1.3.3.5.4.2.2.4.4.6.5s.4.3.6.4c.2.2.4.3.6.5.2.1.4.3.6.4s.4.3.6.4.4.3.6.4.4.3.6.4.4.2.6.4c.2.1.4.2.7.3.2.1.4.2.6.3s.5.2.7.3.4.2.6.3c.3.1.5.2.8.3.2.1.3.1.5.2 5.4 1.9 9.2 6.9 9.2 12.7v.5l19.6-19.8v-1.9z"/></g></svg>