<svg enable-background="new 0 0 213.5 213.5" viewBox="0 0 213.5 213.5" xmlns="http://www.w3.org/2000/svg"><path d="m0 0h213.5v213.5h-213.5z" fill="#311"/><path d="m153.3 63h-123.9v2l12.1 12.2 31 68.1c3 6.6 1.6 14.3-3.5 19.4v2h13.2c14.2 0 23.6-14.6 17.7-27.5l-22.9-50.6c-3.6-8-1.9-17.4 4.2-23.6l12.1 12.2 31 68.1c3 6.6 1.6 14.3-3.5 19.4v2h13.2c14.2 0 23.6-14.6 17.7-27.5l-23-50.6c-3.6-8-1.9-17.4 4.2-23.6.1.1.2.2.3.3.3.3.6.6.9.8.2.2.3.3.5.4.2.2.4.4.7.6.2.2.4.3.6.4.2.2.4.3.7.5.2.1.4.3.6.4s.4.3.7.4c.2.1.4.3.6.4s.4.3.7.4c.2.1.4.2.6.4.2.1.5.2.7.4.2.1.4.2.7.3.2.1.5.2.7.3s.4.2.7.3.5.2.8.3c.2.1.4.1.5.2 5.6 2 9.5 7.1 9.5 13.1v.6l20.2-20.5v-2z" fill="#fff4ef"/></svg>