<?xml version="1.0" encoding="utf-8"?>
<!-- Generator: Adobe Illustrator 23.1.1, SVG Export Plug-In . SVG Version: 6.00 Build 0)  -->
<svg version="1.1" id="Layer_1" xmlns="http://www.w3.org/2000/svg" xmlns:xlink="http://www.w3.org/1999/xlink" x="0px" y="0px"
	 viewBox="0 0 1080 1080" style="enable-background:new 0 0 1080 1080;" xml:space="preserve">
<style type="text/css">
	.st0{fill:#010101;}
	.st1{fill:#5A8FCB;}
</style>
<g>
	<g>
		<path class="st0" d="M529.7,868.6c-0.1,0-0.1,0-0.2,0l-2.3-0.3l-2.3-0.1l-2.4-0.2l-2.3,0.1c-0.1,0-0.2,0-0.3,0l-7.1-0.9l-2.3-0.2
			c-0.1,0-0.1,0-0.2,0l-2.3-0.4l-2.3-0.2c-0.1,0-0.1,0-0.2,0l-2.3-0.5l-2.3-0.3l-2.4-0.4l-2.4-0.4c-0.1,0-0.1,0-0.2,0l-4.6-1.2
			l-2.3-0.5l-2.3-0.4c-0.1,0-0.1,0-0.1,0l-2.3-0.6l-2.3-0.5c-0.1,0-0.1,0-0.2-0.1l-2.2-0.8l-4.5-1.3l-2.3-0.4c-0.1,0-0.1,0-0.2-0.1
			l-2.3-0.8l-2.2-0.8l-2.3-0.5c0,0-0.1,0-0.1,0l-2.3-0.7c-0.1,0-0.1,0-0.2-0.1l-2.1-0.9l-2.2-0.6c0,0-0.1,0-0.1,0l-6.8-2.4l-2.3-0.7
			l-2.3-0.9l-2.2-0.8l-2.3-0.9l-2.2-1.1l-2.2-0.9l-2.2-1l-2.2-0.7c-0.1,0-0.2-0.1-0.3-0.1l-2.1-1.1l-2-1l-2.2-0.7
			c-0.1,0-0.2-0.1-0.3-0.1l-2-1.2l-2.1-0.9l-2.2-1c0,0-0.1,0-0.1-0.1l-2-1.1l-2.2-0.9l-2.3-1c-0.1,0-0.1-0.1-0.2-0.1l-2-1.2l-2.1-1
			c-0.1,0-0.1-0.1-0.2-0.1l-1.9-1.2l-2.1-0.8c-0.1,0-0.2-0.1-0.3-0.2l-1.9-1.3l-2.1-0.9c-0.1,0-0.1-0.1-0.2-0.1l-4-2.5l-2.1-1
			c0,0-0.1,0-0.1,0l-2.1-1.2l-4.1-2.6c0,0-0.1,0-0.1-0.1l-1.9-1.4l-1.9-1.2l-2.1-1c-0.1,0-0.1-0.1-0.2-0.1l-2-1.4l-2-1.3l-2-1.5
			c-0.5-0.4-0.8-1.1-0.5-1.7s0.9-1,1.5-1l2.3,0.2l2.3-0.1l2.4,0.1l2.3-0.1c0.1,0,0.1,0,0.2,0l2.3,0.1l2.3-0.2l2.5,0c0,0,0.1,0,0.1,0
			l2.3,0.1l2.3-0.2c0.1,0,0.2,0,0.2,0l2.4,0.2l2.2,0l2.3-0.2c0,0,0.1,0,0.1,0l2.4,0l2.3,0.1l2.3-0.2c0.1,0,0.1,0,0.2,0l4.8,0.2
			l2.3-0.1c0,0,0.1,0,0.1,0l2.3,0.2l2.3-0.3c0.1,0,0.2,0,0.3,0l2.3,0.2l2.3-0.2l2.5-0.1l2.5,0c0,0,0.1,0,0.1,0l2.3,0.2l2.3-0.2
			c0.1,0,0.1,0,0.2,0l2.3,0.1l2.3-0.1c0.1,0,0.2,0,0.2,0l2.3,0.2l7.1-0.1l2.4,0.1l2.3-0.1c0.1,0,0.1,0,0.2,0l2.4,0.1l4.7,0l2.3-0.1
			l2.4-0.2c0.1,0,0.1,0,0.1,0l4.8,0.1c0,0,0.1,0,0.1,0l2.3,0.2l2.3-0.2c0.1,0,0.1,0,0.2,0l2.4,0.1l2.3,0c0,0,0.1,0,0.1,0l2.3,0.1
			l4.7-0.3c0.1,0,0.2,0,0.2,0l2.3,0.2l2.3,0.1l4.7-0.2c0.1,0,0.1,0,0.2,0l2.3,0.2l2.3-0.1l2.3-0.2l2.5,0c0.1,0,0.1,0,0.2,0l2.3,0.2
			l2.3-0.1l2.4,0.1l2.3-0.3c0.1,0,0.2,0,0.3,0l2.3,0.2l2.3-0.2c0,0,0.1,0,0.1,0l2.4,0l2.4,0.2l2.3-0.1l2.4,0l2.4,0.1l2.3-0.1l2.4,0
			l2.3-0.2c0,0,0.1,0,0.1,0l2.4,0l4.8-0.1c0.1,0,0.1,0,0.2,0l2.3,0.2l2.3,0l2.4,0l2.4-0.1l2.3-0.2c0.1,0,0.1,0,0.2,0l2.3,0.2l2.3,0
			l2.4-0.1c0.1,0,0.1,0,0.2,0l2.3,0.2l2.3,0l2.3-0.1c0.1,0,0.1,0,0.2,0l2.3,0.1l2.3-0.1l2.4-0.1c0,0,0.1,0,0.1,0l2.4,0.1l4.8,0
			c0,0,0.1,0,0.1,0l2.3,0.2l7.1-0.2l2.5,0.1l2.4,0.1l2.3-0.2c0.1,0,0.1,0,0.2,0l2.4,0.2l2.2,0l2.3-0.2c0.1,0,0.2,0,0.3,0l2.3,0.2
			l2.3,0l2.5,0.1l4.7-0.1c0,0,0.1,0,0.1,0l2.3,0.1l4.8-0.1l4.9,0.1l2.4,0l2.4,0.1l4.7-0.2c0.1,0,0.1,0,0.1,0l4.8,0.2l2.3-0.1
			l4.8-0.2c0.1,0,0.1,0,0.2,0l2.3,0.2l2.3-0.2c0,0,0.1,0,0.1,0l2.4,0c0,0,0.1,0,0.1,0l2.2,0.2l2.2-0.3c0.1,0,0.1,0,0.2,0l2.4,0
			c0,0,0.1,0,0.2,0l2.3,0.2l2.3-0.2c0.1,0,0.1,0,0.2,0l2.3,0.1l2.3-0.2c0,0,0.1,0,0.1,0l4.8,0c0,0,0.1,0,0.1,0l2.3,0.2l2.3-0.2
			c0.1,0,0.1,0,0.2,0l2.3,0.2l2.4,0l2.4-0.1c0.6,0,1.1,0.3,1.4,0.8c0.3,0.5,0.2,1.2-0.2,1.6l-3.1,3.8c0,0.1-0.1,0.1-0.1,0.1
			l-1.7,1.6l-1.9,1.6l-1.9,1.5l-1.8,1.5c-0.1,0-0.1,0.1-0.2,0.1l-2,1.3l-2.1,1.2l-2,1.3c-0.1,0.1-0.2,0.1-0.3,0.1l-2.2,0.8l-2,1.1
			c0,0-0.1,0.1-0.2,0.1l-2.2,0.9l-4.5,1.8c0,0-0.1,0-0.1,0l-2.3,0.6l-4.5,1.5l-2.2,0.9c0,0-0.1,0-0.1,0l-2.3,0.7c0,0-0.1,0-0.1,0
			l-2.4,0.5l-2.2,0.6l-2.2,0.7c0,0-0.1,0-0.1,0l-2.3,0.5l-4.6,1.2l-2.4,0.5l-4.6,1.3c-0.1,0-0.1,0-0.2,0l-2.2,0.3l-2.2,0.7
			c-0.1,0-0.2,0.1-0.3,0.1l-2.3,0.3l-2.2,0.6c-0.1,0-0.1,0-0.2,0l-2.3,0.4l-2.2,0.6l-7,1.7l-2.4,0.5l-2.4,0.4l-2.3,0.5l-4.6,1.2
			l-2.2,0.7l-4.8,1.2l-2.4,0.5l-2.2,0.6l-2.4,0.6l-2.2,0.7l-2.4,0.6l-4.5,1.5l-2.2,0.8l-2.1,0.9c-0.1,0-0.1,0.1-0.2,0.1l-2.3,0.6
			l-2.1,0.8l-4.3,2.1l-2.3,0.9l-2.1,1.1c-0.1,0-0.1,0.1-0.2,0.1l-2.3,0.7l-2.2,0.8c0,0-0.1,0-0.1,0l-2.3,0.6l-2.2,0.8l-2.4,0.7
			c-0.1,0-0.1,0-0.2,0l-2.3,0.3l-2.2,0.7c-0.1,0-0.1,0-0.2,0l-7.2,1.1c-0.1,0-0.1,0-0.2,0l-2.4,0.1l-2.3,0.3l-2.5,0.2
			c-0.1,0-0.1,0-0.2,0l-2.3-0.2l-2.3,0.2c-0.1,0-0.2,0-0.2,0l-2.3-0.1L529.7,868.6C529.8,868.6,529.7,868.6,529.7,868.6z
			 M522.5,864.9c0,0,0.1,0,0.1,0l2.4,0.2l2.4,0.1c0,0,0.1,0,0.1,0l2.3,0.3l2.3-0.1c0.1,0,0.1,0,0.2,0l2.3,0.1l2.3-0.2
			c0.1,0,0.2,0,0.3,0l2.3,0.2l2.3-0.1l2.3-0.3c0,0,0.1,0,0.1,0l2.3-0.1l2.3-0.4l4.7-0.7l2.2-0.7c0.1,0,0.2,0,0.2,0l2.3-0.3l2.2-0.6
			l2.2-0.8c0,0,0.1,0,0.1,0l2.3-0.6l2.2-0.8l2.2-0.7l2.1-1c0,0,0.1,0,0.1,0l2.2-0.9l4.3-2.1c0,0,0.1,0,0.1,0l2.2-0.9
			c0,0,0.1,0,0.2,0l2.2-0.6l2.1-0.9l4.7-1.6l2.3-0.8l2.4-0.7l2.2-0.7l2.4-0.6l2.3-0.7l2.4-0.6l4.6-1.2l2.2-0.7c0,0,0.1,0,0.1,0
			l7.1-1.7l2.5-0.4l2.3-0.5l9.3-2.3c0.1,0,0.1,0,0.2,0l2.3-0.3l2.2-0.6c0.1,0,0.2,0,0.2,0l2.2-0.3l2.2-0.7c0.1,0,0.2,0,0.3-0.1
			l2.3-0.3l4.5-1.3c0,0,0.1,0,0.1,0l2.4-0.5l6.9-1.7l2.2-0.7l2.4-0.6l2.4-0.5l2.2-0.6l2.2-0.9l4.6-1.6l2.3-0.6l4.4-1.7l2.1-0.9
			l2-1.2c0.1,0,0.1-0.1,0.2-0.1l2.1-0.8l1.9-1.2c0,0,0.1,0,0.1-0.1l2.1-1.2l1.9-1.2l1.7-1.5l1.9-1.5l1.8-1.5l1.6-1.5l0.9-1.1l-1.6,0
			c0,0-0.1,0-0.1,0l-2.3-0.2l-2.3,0.2c-0.1,0-0.2,0-0.3,0l-2.3-0.2l-4.7,0l-2.3,0.2c-0.1,0-0.1,0-0.2,0l-2.3-0.1l-2.3,0.2
			c-0.1,0-0.2,0-0.2,0l-2.3-0.2l-2.2,0l-2.3,0.3c-0.1,0-0.2,0-0.3,0l-2.3-0.2l-2.3,0l-2.3,0.2c-0.1,0-0.2,0-0.3,0l-2.3-0.2l-7.1,0.3
			c0,0-0.1,0-0.1,0l-4.7-0.2l-4.7,0.2c0,0-0.1,0-0.1,0l-2.4-0.1l-2.3,0l-4.9-0.1l-4.7,0.1c0,0-0.1,0-0.1,0l-2.3-0.1l-4.8,0.1
			l-2.5-0.1l-2.3,0c-0.1,0-0.1,0-0.1,0l-2.3-0.2l-2.3,0.2c-0.1,0-0.1,0-0.2,0l-2.4,0l-2.4-0.2l-2.3,0.2c-0.1,0-0.1,0-0.2,0l-2.4-0.1
			l-2.4-0.1l-7.1,0.2c-0.1,0-0.1,0-0.2,0l-2.3-0.2l-4.7,0l-2.4-0.1l-2.3,0.1l-2.4,0.1c0,0-0.1,0-0.1,0l-2.3-0.1l-2.3,0.1l-2.5,0
			c0,0-0.1,0-0.1,0l-2.3-0.2l-2.3,0.1l-2.4,0c0,0-0.1,0-0.1,0l-2.3-0.2l-2.3,0.2l-2.5,0.1l-2.4,0l-2.4,0c-0.1,0-0.1,0-0.2,0
			l-2.3-0.2l-4.7,0.1l-2.4,0l-2.3,0.2c0,0-0.1,0-0.1,0l-2.4,0l-2.3,0.1c0,0-0.1,0-0.1,0l-2.4-0.1l-2.3,0l-2.4,0.1c0,0-0.1,0-0.1,0
			l-2.4-0.2l-2.2,0l-2.3,0.2c-0.1,0-0.1,0-0.2,0l-2.3-0.2l-2.3,0.3c-0.1,0-0.1,0-0.2,0l-2.4-0.1l-2.3,0.1c-0.1,0-0.1,0-0.2,0
			l-2.3-0.3l-2.3,0l-2.3,0.2l-2.5,0.1c-0.1,0-0.1,0-0.2,0l-2.3-0.2l-4.7,0.2l-2.5-0.1c0,0-0.1,0-0.1,0l-2.3-0.2l-4.7,0.3
			c-0.1,0-0.1,0-0.2,0l-2.3-0.1l-2.3,0l-2.4-0.1l-2.3,0.2c-0.1,0-0.2,0-0.3,0l-2.3-0.2l-4.7-0.1l-2.3,0.2l-2.4,0.1l-2.5,0l-2.4,0
			l-2.4-0.1l-2.3,0.1c0,0-0.1,0-0.1,0l-2.4-0.1l-7.1,0.1c-0.1,0-0.1,0-0.2,0l-2.3-0.2l-2.3,0.1c-0.1,0-0.1,0-0.2,0l-2.3-0.1
			l-2.3,0.2c-0.1,0-0.2,0-0.2,0l-2.3-0.2l-2.3,0l-2.3,0.1l-2.3,0.2c-0.1,0-0.2,0-0.3,0l-2.2-0.2l-2.2,0.2c-0.1,0-0.2,0-0.3,0
			l-2.3-0.2l-2.3,0.1l-4.8-0.2l-2.3,0.2c-0.1,0-0.2,0-0.2,0l-2.4-0.1l-2.3,0l-2.3,0.2c-0.1,0-0.1,0-0.2,0l-2.4-0.1l-2.4-0.2
			l-2.3,0.2c-0.1,0-0.1,0-0.2,0l-2.3-0.1l-2.3,0l-2.3,0.2c-0.1,0-0.1,0-0.2,0l-2.3-0.1l-2.3,0.1c0,0-0.1,0-0.1,0l-2.2-0.1l1.8,1.3
			l2.1,1c0,0,0.1,0,0.1,0.1l2,1.3c0,0,0.1,0,0.1,0.1l1.9,1.4l4,2.6l2,1.1l2.1,1c0.1,0,0.1,0.1,0.2,0.1l4,2.5l2.1,0.9
			c0.1,0,0.2,0.1,0.3,0.1l1.8,1.3l2.1,0.8c0.1,0,0.2,0.1,0.3,0.1l2,1.2l2.1,1c0.1,0,0.1,0.1,0.2,0.1l2,1.2l2.1,1l2.2,0.9
			c0.1,0,0.1,0.1,0.2,0.1l2,1.2l2.1,1l2.2,0.9c0.1,0,0.1,0.1,0.2,0.1l2,1.1l2.2,0.7c0.1,0,0.1,0,0.2,0.1l2.2,1.1l2.1,1.1l2.2,0.7
			c0.1,0,0.1,0,0.2,0.1l2.2,1l2.2,0.9c0,0,0.1,0,0.1,0l2.2,1l2.2,0.9l2.2,0.8l2.3,0.9l2.2,0.7l6.8,2.4l2.3,0.6c0.1,0,0.1,0,0.2,0.1
			l2.1,0.9l2.2,0.7l2.3,0.5c0.1,0,0.1,0,0.2,0.1l2.3,0.8l2.1,0.7l2.3,0.4c0,0,0.1,0,0.1,0l4.6,1.3c0,0,0.1,0,0.1,0l2.2,0.8l2.3,0.5
			l2.3,0.6l2.3,0.4c0,0,0.1,0,0.1,0l2.3,0.5l4.6,1.2l2.3,0.3l2.4,0.4l2.3,0.3c0,0,0.1,0,0.1,0l2.3,0.5l2.3,0.2c0,0,0.1,0,0.1,0
			l2.3,0.4l2.3,0.2l7.1,0.9L522.5,864.9C522.5,864.9,522.5,864.9,522.5,864.9z"/>
	</g>
	<g>
		<path class="st0" d="M532.8,813.4C532.7,813.4,532.7,813.4,532.8,813.4c-0.9,0-1.5-0.7-1.5-1.5l0.1-2.2l-0.4-2.3
			c0-0.2,0-0.3,0-0.5l0.4-2.2l-0.3-2.2c0-0.2,0-0.3,0-0.5l0.4-2.3l0-2.3l0-2.4l-0.1-2.4l-0.2-2.4l-0.1-2.5c0-0.1,0-0.2,0-0.2
			l0.3-2.2l-0.2-2.2c0-0.1,0-0.2,0-0.2l0.2-2.3l-0.3-2.3c0-0.2,0-0.3,0-0.5l0.4-2.2l-0.2-2.2c0-0.1,0-0.1,0-0.2l0.1-2.2l-0.4-2.2
			c0-0.1,0-0.3,0-0.4l0.2-2.4l0.1-2.3l-0.1-2.3c0,0,0-0.1,0-0.1l0.1-2.3l-0.1-2.3l-0.2-2.3c0-0.1,0-0.1,0-0.2l0-4.8
			c0-0.1,0-0.1,0-0.2l0.3-2.2l-0.3-2.2c0,0,0-0.1,0-0.1l-0.2-4.8c0-0.1,0-0.2,0-0.3l0.4-2.1l-0.4-2.1c0-0.1,0-0.2,0-0.3l0.1-2.4
			c0,0,0-0.1,0-0.1l0.3-2.3l-0.1-2.3l-0.1-2.5l-0.2-2.3c0-0.1,0-0.1,0-0.2l0.2-2.4l0.1-2.3l0.2-2.4l-0.1-2.2l-0.4-2.3
			c0-0.2,0-0.3,0-0.5l0.3-2.2l-0.2-2.2c0-0.1,0-0.2,0-0.3l0.3-2.2l-0.3-2.2c0-0.1,0-0.1,0-0.2l-0.1-2.4c0-0.1,0-0.2,0-0.3l0.4-2.2
			l-0.2-2.2c0-0.1,0-0.2,0-0.3l0.2-2.2l-0.3-2.2c0-0.1,0-0.2,0-0.3l0.2-2.3l0-2.3l-0.2-2.3l-0.1-2.5c0-0.1,0-0.2,0-0.3l0.3-2.3
			l0.1-2.3l-0.1-2.2l-0.4-2.3c0-0.2,0-0.3,0-0.5l0.4-2.2l-0.3-2.2c0-0.1,0-0.1,0-0.2l0-2.4c0,0,0-0.1,0-0.1l0.4-4.8l0-2.3l-0.1-2.3
			l-0.3-2.3c0-0.1,0-0.1,0-0.2l0-2.4l0-2.4c0-0.1,0-0.2,0-0.3l0.4-2.1l-0.4-2.1c0-0.1,0-0.3,0-0.4l0.2-2.3l-0.2-2.3
			c0-0.1,0-0.1,0-0.2l0.1-2.4c0-0.1,0-0.1,0-0.2l0.4-2.3l0-2.1l-0.4-2.2c0-0.1,0-0.2,0-0.4l0.1-2.3l-0.1-2.3c0,0,0-0.1,0-0.1
			l0.1-2.4l0.1-2.4L531,615c0-0.1,0-0.2,0-0.3l0.4-2.2l-0.3-2.2c0-0.1,0-0.2,0-0.3l0.2-2.2l-0.4-2.2c0-0.2,0-0.3,0-0.5l0.4-2.3
			l-0.1-2.3l-0.3-4.8c0-0.1,0-0.3,0-0.4l0.5-2.1l-0.3-2.1l-0.2-2.5c0-0.1,0-0.2,0-0.3l0.3-2.4l0.1-2.2l-0.3-2.3c0-0.1,0-0.3,0-0.4
			l0.3-2.2l-0.2-2.2l-0.3-2.4c0-0.1,0-0.2,0-0.3l0.3-2.2l-0.2-2.2l-0.1-2.5c0-0.1,0-0.2,0-0.4l0.5-2.2l-0.1-2.1l-0.4-2.3
			c0-0.1,0-0.3,0-0.4l0.3-2.3l-0.1-2.3c0,0,0-0.1,0-0.1l0.1-2.4l0.1-2.4l0-2.2l-0.3-2.3c0-0.2,0-0.3,0-0.5l0.4-2.3l0-4.6l-0.2-2.3
			c0-0.1,0-0.1,0-0.2l0.1-2.3l-0.1-2.3l0-2.4l-0.2-2.3c0,0,0-0.1,0-0.1l0.1-2.4c0-0.1,0-0.1,0-0.2l0.4-2.1l-0.4-2.2
			c0-0.1,0-0.2,0-0.3l0-2.4l-0.1-2.3c0-0.1,0-0.1,0-0.2l0.2-2.3l0-4.7l-0.2-2.3c0-0.1,0-0.3,0-0.4l0.4-2.3l0-2.2l-0.4-2.3
			c0-0.1,0-0.2,0-0.3l0-2.4c0,0,0-0.1,0-0.1l0.2-2.3l-0.2-4.7c0-0.1,0-0.1,0-0.2l0.2-2.4l0.1-2.4l0.2-2.4l0-2.2l-0.4-2.3
			c0-0.1,0-0.3,0-0.4l0.2-2.4l0-2.2l-0.3-2.3c0-0.1,0-0.2,0-0.4l0.3-2.2l-0.3-2.2c0-0.1,0-0.2,0-0.3l0.1-2.4l0.2-2.3l-0.2-2.3
			l-0.1-2.5c0-0.1,0-0.2,0-0.3l0.4-2.2l-0.2-2.2c0-0.1,0-0.2,0-0.3l0.2-2.4l0.1-2.3l0-4.7l-0.2-2.3c0-0.1,0-0.1,0-0.2l0.2-4.7
			l-0.2-2.3l-0.2-2.4c0-0.1,0-0.2,0-0.3l0.2-2.3l-0.1-2.3c0-0.1,0-0.2,0-0.3l0.3-2.3l-0.2-2.3l-0.2-2.4c0-0.1,0-0.1,0-0.2l0.1-4.8
			c0,0,0-0.1,0-0.1l0.2-2.3l-0.2-2.3c0,0,0-0.1,0-0.1l0-2.4L531,401c0-0.1,0-0.2,0-0.3l0.3-2.3l-0.1-2.3l-0.2-2.3c0-0.1,0-0.2,0-0.3
			l0.2-2.3l-0.1-2.3c0-0.1,0-0.2,0-0.2l0.3-2.2l-0.5-2.2c0-0.2,0-0.3,0-0.5l0.3-2.2l-0.2-2.2c0-0.1,0-0.2,0-0.3l0.3-2.3l-0.2-2.3
			l-0.1-2.5c0-0.1,0-0.3,0-0.4l0.5-2.2l-0.2-2.2c0,0,0-0.1,0-0.1l-0.1-2.4c0-0.1,0-0.1,0-0.2l0.3-2.3l0-2.2l-0.5-2.3
			c0-0.2,0-0.4,0-0.6l0.4-2.2L531,353c0-0.1,0-0.1,0-0.2l0.1-2.4L531,348l0-2.5l0-2.4c0-0.1,0-0.1,0-0.2l0.3-2.2l-0.3-2.2
			c0-0.1,0-0.3,0-0.4l0.3-2.4l0.2-2.3l0-2.2l-0.4-2.2c0-0.2,0-0.4,0-0.6l0.4-2.2l-0.3-2.2c0-0.1,0-0.2,0-0.3l0.1-2.3l-0.3-2.3
			c0-0.2,0-0.3,0-0.5l0.5-2.2l-0.1-2.2l-0.2-2.3c0,0,0-0.1,0-0.1l0-2.4l0.1-2.4l-0.1-2.3c0-0.1,0-0.1,0-0.2l0.1-2.3l-0.1-2.3
			l-0.2-2.4c0-0.1,0-0.2,0-0.2l0.2-2.3l0-2.3l0-2.4l-0.1-2.4c0,0,0-0.1,0-0.1l0.1-2.4l0-2.3l-0.2-2.3c0,0,0-0.1,0-0.1l0-4.8l0-2.4
			c0,0,0-0.1,0-0.1l0.2-2.4l0.1-2.2l-0.2-2.3c0-0.1,0-0.3,0-0.4l0.4-2.1l-0.4-2.1c-0.2-0.8,0.4-1.6,1.2-1.8c0.8-0.2,1.6,0.4,1.8,1.2
			l0.5,2.4c0,0.2,0,0.4,0,0.6l-0.4,2.2l0.2,2.2c0,0.1,0,0.1,0,0.2l-0.1,2.4l-0.2,2.4l0,2.4l0,4.8l0.2,2.4l0,2.5l-0.1,2.4l0.1,2.3
			l0,2.5l0,2.4c0,0,0,0.1,0,0.1l-0.2,2.3l0.2,2.3l0.1,2.4c0,0.1,0,0.1,0,0.2l-0.1,2.3l0.1,2.3c0,0.1,0,0.1,0,0.2l-0.1,2.4l0,2.3
			l0.2,2.3l0.1,2.5c0,0.1,0,0.2,0,0.4l-0.5,2.2l0.3,2.2c0,0.1,0,0.2,0,0.2l-0.1,2.3l0.3,2.3c0,0.1,0,0.3,0,0.4l-0.4,2.1l0.4,2.1
			c0,0.1,0,0.2,0,0.3l0,2.4l-0.2,2.5l-0.2,2.3l0.3,2.2c0,0.1,0,0.3,0,0.4l-0.3,2.3l0,2.3l0,2.5l0.1,2.3l0,2.4l0.3,2.3
			c0,0.1,0,0.3,0,0.4l-0.4,2.1l0.4,2.1c0,0.1,0,0.2,0,0.3l0,2.4c0,0.1,0,0.1,0,0.2l-0.3,2.3l0.1,2.2l0.2,2.4c0,0.2,0,0.3,0,0.5
			l-0.5,2.2l0.1,2.2l0.2,2.3c0,0.1,0,0.2,0,0.3l-0.3,2.2l0.2,2.2c0,0.1,0,0.2,0,0.4l-0.3,2.2l0.5,2.2c0,0.2,0,0.3,0,0.5l-0.3,2.3
			l0.1,2.3c0,0.1,0,0.1,0,0.2l-0.2,2.3l0.2,2.3l0.1,2.5c0,0.1,0,0.2,0,0.3L534,401l0.1,2.3l0,2.4l0.2,2.3c0,0.1,0,0.2,0,0.3
			l-0.2,2.3l-0.1,4.7l0.2,2.3l0.2,2.4c0,0.1,0,0.2,0,0.3l-0.3,2.3l0.1,2.3c0,0.1,0,0.2,0,0.3l-0.2,2.3l0.1,2.3l0.2,2.4
			c0,0.1,0,0.1,0,0.2l-0.2,4.7l0.2,2.3c0,0,0,0.1,0,0.1l0,4.8l-0.1,2.5L534,449l0.2,2.3c0,0.1,0,0.3,0,0.4l-0.4,2.2l0.1,2.2l0.2,2.3
			c0,0.1,0,0.2,0,0.3l-0.3,2.4l-0.1,2.2l0.3,2.3c0,0.1,0,0.3,0,0.4l-0.3,2.2l0.2,2.2c0,0.1,0,0.1,0,0.2l0,2.4l-0.2,2.3l0.4,2.2
			c0,0.1,0,0.2,0,0.3l0,2.4c0,0,0,0.1,0,0.1l-0.2,2.4l-0.1,2.3c0,0,0,0.1,0,0.1l-0.2,2.3l0.2,4.7c0,0.1,0,0.1,0,0.2l-0.2,2.4l0,2.2
			l0.4,2.3c0,0.1,0,0.2,0,0.2l0,2.4c0,0.1,0,0.2,0,0.2l-0.4,2.2l0.2,2.2c0,0.1,0,0.1,0,0.2l0,4.8c0,0.1,0,0.1,0,0.1l-0.2,2.3
			l0.1,2.3l0,2.3l0.4,2.3c0,0.2,0,0.3,0,0.5l-0.4,2.3l0,2.2l0.2,2.3c0,0,0,0.1,0,0.1l0,2.4l0.1,2.3c0,0.1,0,0.1,0,0.2l-0.1,2.3
			l0.2,2.3c0,0,0,0.1,0,0.1l0,4.8c0,0.1,0,0.2,0,0.2l-0.4,2.2l0.3,2.2c0,0.1,0,0.2,0,0.2l0,2.4l-0.1,2.5l-0.1,2.3l0.1,2.4
			c0,0.1,0,0.2,0,0.2l-0.2,2.2l0.3,2.2c0,0,0,0.1,0,0.1l0.1,2.4c0,0.1,0,0.3,0,0.4l-0.5,2.2l0.1,2.2l0.2,2.3c0,0.1,0,0.2,0,0.3
			l-0.2,2.2l0.3,2.2l0.2,2.5c0,0.1,0,0.2,0,0.3l-0.3,2.2l0.3,2.2c0,0.1,0,0.2,0,0.3l-0.2,2.4l-0.3,2.3l0.2,2.3l0.3,2.3
			c0,0.2,0,0.3,0,0.5l-0.5,2.2l0.4,7c0,0.1,0,0.2,0,0.3l-0.3,2.2l0.4,2.2c0,0.1,0,0.2,0,0.4l-0.2,2.2l0.3,2.2c0,0.2,0,0.3,0,0.5
			L534,615l0.1,2.3c0,0,0,0.1,0,0.1l-0.1,2.4l-0.1,2.3l0.2,2.3c0,0.1,0,0.1,0,0.2l-0.1,2.2l0.4,2.2c0,0.1,0,0.2,0,0.3l0,2.4
			c0,0.1,0,0.1,0,0.2l-0.4,2.3l-0.1,2.2l0.2,2.3c0,0.1,0,0.2,0,0.3l-0.2,2.2l0.4,2.2c0,0.2,0,0.4,0,0.6l-0.4,2.3l0,2.3l0,2.3
			l0.3,2.3c0,0,0,0.1,0,0.1l0.1,2.4l0,2.5c0,0,0,0.1,0,0.1l-0.4,4.7l0,2.2l0.3,2.3c0,0.1,0,0.3,0,0.5l-0.4,2.2l0.3,2.2
			c0,0.1,0,0.1,0,0.2l0.1,2.4c0,0,0,0.1,0,0.1l-0.1,2.4c0,0,0,0.1,0,0.1l-0.3,2.3l0.1,2.3l0.2,2.3c0,0,0,0.1,0,0.1l0,2.4
			c0,0,0,0.1,0,0.1l-0.2,2.2l0.3,2.2c0,0.1,0,0.2,0,0.3l-0.2,2.3l0.2,2.3c0,0.1,0,0.3,0,0.4l-0.4,2.3l0.1,2.2l0.3,2.3
			c0,0.1,0,0.3,0,0.4l-0.3,2.3l0.2,2.3c0,0.1,0,0.2,0,0.4l-0.3,2.2l0.3,2.2c0,0.1,0,0.1,0,0.2l0.1,2.4c0,0.1,0,0.1,0,0.2l-0.2,2.4
			l-0.1,2.3l-0.2,2.4l0.2,2.3l0.1,2.5l0.2,2.3c0,0.1,0,0.2,0,0.3l-0.3,2.3l-0.1,2.2l0.4,2.2c0,0.2,0,0.4,0,0.6l-0.4,2.2l0.2,4.6
			l0.3,2.3c0,0.1,0,0.3,0,0.4l-0.3,2.3l0,4.6l0.2,2.3c0,0,0,0.1,0,0.1l0.1,2.4c0,0,0,0.1,0,0.1l-0.1,2.3l0.1,2.3c0,0,0,0.1,0,0.1
			l-0.1,2.4l-0.2,2.3l0.4,2.2c0,0.1,0,0.2,0,0.4l-0.1,2.3l0.2,2.3c0,0.1,0,0.3,0,0.4l-0.4,2.2l0.2,2.2c0,0.1,0,0.2,0,0.3l-0.2,2.3
			l0.2,2.3c0,0.1,0,0.2,0,0.3l-0.3,2.3l0.1,2.3l0.2,2.3l0.1,2.5l0,2.5l0,2.5c0,0.1,0,0.2,0,0.2l-0.4,2.2l0.3,2.2c0,0.2,0,0.3,0,0.5
			l-0.4,2.1l0.4,2.1c0,0.1,0,0.2,0,0.3l-0.1,2.4C534.2,812.8,533.6,813.4,532.8,813.4z"/>
	</g>
	<g>
		<path class="st0" d="M532.6,247C532.6,247,532.6,247,532.6,247c-0.8,0-1.5-0.7-1.5-1.5l0-1.9l0-1.9c0,0,0-0.1,0-0.1l0-2l0-6.8
			l0-2.3l0-2.4l0-2.3l0-2.4l0-2.3l0-2.4l0-2.4l0-2.4l0-4.7l0-2.4l0-4.7l0-2.4c0-0.8,0.7-1.5,1.5-1.5c0.8,0,1.5,0.7,1.5,1.5l0,2.4
			l0,4.7l0,2.4l0,4.7l0,2.4l0,2.3l0,2.4l0,2.3l0,2.4l0,2.3l0,2.4l0,2.3l0,6.9l0,2.1c0,0,0,0.1,0,0.1l0,1.8l0,1.9
			C534.1,246.4,533.4,247,532.6,247z"/>
	</g>
	<g>
		<path class="st1" d="M373.5,456l-3.9-0.5l-3.7-1.2l-3.3-2.1l-2.7-2.7l-2.2-3.2l-1.4-3.6l-0.7-4.7l0.5-4.2l1.4-3.8l2.2-3.3l2.7-2.8
			l3.6-2.1l3.8-1.2l3.8-0.4l3.9,0.4l3.7,1.1l3.2,2l2.8,2.6l2.1,3l1.6,3.3l0.8,5.4l-0.6,4.1l-1.2,3.7l-2.3,3.5l-2.8,2.8l-3.4,2.1
			l-3.8,1.3L373.5,456z M370.3,452.6l3.2,0.4l3.3-0.4l3.1-1.1l2.8-1.8l2.4-2.4l1.8-2.8l1-3.2l0.5-3.3l-0.7-4.5l-1.3-2.8l-1.8-2.6
			l-2.3-2.1l-2.7-1.6l-3-0.9l-3.1-0.3l-3.3,0.4l-3.2,1.1l-2.8,1.7l-2.3,2.4l-1.8,2.8l-1.1,3.1l-0.4,3.3l0.6,4.1l1.2,2.9l1.8,2.6
			l2.3,2.2l2.7,1.7L370.3,452.6z"/>
	</g>
	<g>
		<path class="st1" d="M667.9,342.3l-4-0.4l-3.9-1.5l-3.3-2.2l-2.8-2.8l-2.1-3.4l-1.3-3.8l-0.4-3.8l0.3-3.8l1.1-3.4l1.8-3.1l2.7-3.2
			l3.7-2.5l4.1-1.5l4.1-0.5l4.2,0.5l3.8,1.4l3.3,2.2l2.8,2.9l2.1,3.4l1.3,3.8l0.4,3.8l-0.7,4.8l-2.2,5.3l-0.4-0.1l-1.5,2.1l-2.8,2.5
			l-3.3,1.9l-3.5,1.1L667.9,342.3z M664.5,339l3.3,0.3l3.1-0.3l3-0.9l2.7-1.6l2.3-2.1l2-2.7l1.4-3.4l0.6-3.9l-0.4-3.3l-1.1-3.2
			l-1.8-2.8l-2.4-2.3l-2.8-1.8l-3.1-1.1l-3.3-0.4l-3.6,0.4l-3.4,1.3l-3,2l-2.4,2.8l-1.5,2.6l-0.9,2.8l-0.2,3l0.4,3.3l1.1,3.1
			l1.8,2.8l2.4,2.3l2.8,1.8L664.5,339z"/>
	</g>
	<g>
		<path class="st1" d="M684.2,728.9l-4.1-0.5l-3.7-1.3l-3.3-2l-2.9-3l-2.1-3.4l-1.2-3.7l-0.5-3.8l0.6-4.1l1.3-3.8l2.2-3.4l2.8-2.7
			l3.2-2.2l4-1.3l3.8-0.4l4.1,0.5l3.8,1.4l3.3,2.2l2.8,2.7l2.1,3.6l1.4,3.8l0.4,3.8l-0.5,4.2l-1.4,3.8l-2.2,3.3l-2.8,2.9l-3.4,2.1
			l-3.8,1.3L684.2,728.9z M680.9,725.5l3.3,0.4l3.3-0.3l3.1-1.1l2.8-1.8l2.3-2.4l1.8-2.8l1.1-3.1l0.3-3.3l-0.4-3.3l-1.2-3.1
			l-1.7-2.9l-2.4-2.3l-2.8-1.8l-3.1-1.1l-3.3-0.3l-3.3,0.3l-3.1,1.1l-2.8,1.9l-2.4,2.3l-1.8,2.8l-1.1,3.2l-0.4,3.3l0.4,3.3l1,3.2
			l1.8,2.8l2.3,2.4l2.9,1.7L680.9,725.5z"/>
	</g>
	<g>
		<path class="st0" d="M570.6,395.8c-0.1,0-0.2,0-0.2,0c-0.7-0.1-1.2-0.7-1.3-1.3l-0.3-3.5l-0.8-3.4l-1.3-3.2l-1.8-3l-2.1-2.8
			l-2.6-2.5l-2.7-2.3l-2.9-2.1l-3.1-1.9c-0.5-0.3-0.8-0.9-0.7-1.5s0.5-1.1,1.1-1.2l3.8-0.9c0.1,0,0.2,0,0.2,0l3.9-0.3
			c0.1,0,0.2,0,0.3,0l3.9,0.4c0.1,0,0.2,0,0.3,0.1l3.8,1.2c0.1,0,0.2,0.1,0.3,0.2l3.4,2.1c0.1,0.1,0.2,0.1,0.3,0.2l2.3,2.4
			c0.1,0.1,0.2,0.2,0.3,0.4l1.5,2.9c0.1,0.1,0.1,0.3,0.1,0.4l0.6,3.3c0,0.1,0,0.2,0,0.4l-0.2,3.3c0,0.1,0,0.2-0.1,0.3l-0.9,3.2
			c0,0.1,0,0.1-0.1,0.2l-3.7,8.2C571.7,395.4,571.2,395.8,570.6,395.8z M556.1,369.2L556.1,369.2c0,0,0.1,0,0.1,0.1l3,2.1
			c0,0,0.1,0.1,0.1,0.1l2.8,2.4l2.7,2.6c0.1,0.1,0.1,0.1,0.2,0.2l2.2,2.9c0,0,0.1,0.1,0.1,0.1l1.9,3.1c0,0.1,0.1,0.1,0.1,0.2
			l1.4,3.4c0,0.1,0.1,0.2,0.1,0.2l0.5,2.2l1.5-3.3l0.8-2.9l0.2-3l-0.5-2.9l-1.3-2.5l-2-2.1l-3-1.9l-3.4-1.1l-3.6-0.4L556.1,369.2z"
			/>
	</g>
	<g>
		<path class="st0" d="M591.4,372.2c-0.2,0-0.4,0-0.7-0.2l-3.2-1.6l-3.3-1.1l-3.4-0.7l-3.5-0.5l-3.5-0.3l-3.6-0.1l-3.6,0.1l-3.5,0.1
			l-3.5,0.5L556,369l-3.4,1c-0.6,0.2-1.2,0-1.6-0.5c-0.4-0.5-0.4-1.2-0.1-1.7l1.9-3c0-0.1,0.1-0.1,0.1-0.2l2.3-2.7
			c0-0.1,0.1-0.1,0.2-0.2l2.7-2.4c0.1-0.1,0.2-0.2,0.3-0.2l3.1-1.7c0.1,0,0.2-0.1,0.2-0.1l3.4-1.1c0.1,0,0.2-0.1,0.3-0.1l3.5-0.4
			c0.1,0,0.2,0,0.3,0l3.4,0.2c0.1,0,0.1,0,0.2,0l3.4,0.7c0.1,0,0.1,0,0.2,0.1l3.2,1.1c0.1,0,0.1,0.1,0.2,0.1l3,1.6
			c0,0,0.1,0.1,0.1,0.1l2.8,1.9c0.1,0.1,0.1,0.1,0.2,0.2l2.4,2.4c0,0,0.1,0.1,0.1,0.1l2.2,2.6c0,0,0.1,0.1,0.1,0.1l1.9,2.9
			c0.4,0.6,0.3,1.3-0.1,1.8C592.2,372,591.8,372.2,591.4,372.2z M570.1,364.7l3.7,0.1c0,0,0.1,0,0.1,0l3.6,0.4l3.7,0.5
			c0,0,0.1,0,0.1,0l3.6,0.8c0.1,0,0.1,0,0.2,0l1.9,0.7l-0.8-1l-2.3-2.2l-2.7-1.8l-2.9-1.5l-3-1.1l-3.2-0.7l-3.2-0.2l-3.2,0.4l-3.1,1
			l-2.9,1.5l-2.4,2.2l-1.9,2.3l3.5-0.6l3.6-0.5c0,0,0.1,0,0.1,0l3.6-0.2L570.1,364.7z"/>
	</g>
	<g>
		<path class="st0" d="M532.7,568.5c-0.8,0-1.5-0.6-1.5-1.4l-0.3-7.2l-0.2-3.5l-1.2-10.5l-0.8-3.4l-1-3.4l-0.9-3.4l-1.2-3.2
			l-1.5-3.2l-1.6-3l-2-2.8l-2.1-2.7l-2.4-2.4l-2.7-2l-2.9-1.7l-3.1-1.2l-3.3-0.7l-3.3-0.4l-3.4,0.2l-3.4,0.5l-3.4,0.9
			c-0.8,0.2-1.6-0.3-1.8-1.1c-0.2-0.8,0.3-1.6,1.1-1.8l3.4-0.9c0.1,0,0.1,0,0.2,0l3.5-0.5c0,0,0.1,0,0.1,0l3.6-0.3
			c0.1,0,0.2,0,0.3,0l3.5,0.4c0.1,0,0.1,0,0.2,0l3.5,0.8c0.1,0,0.1,0,0.2,0.1l3.3,1.3c0.1,0,0.2,0.1,0.2,0.1l3.1,1.8
			c0,0,0.1,0.1,0.1,0.1l2.9,2.1c0.1,0,0.1,0.1,0.2,0.1l2.6,2.5c0,0,0.1,0.1,0.1,0.2l2.2,2.8l2.1,3c0,0.1,0.1,0.1,0.1,0.2l1.7,3.2
			l1.5,3.3c0,0,0,0.1,0,0.1l1.3,3.3c0,0.1,0,0.1,0.1,0.2l0.9,3.5l1,3.4c0,0,0,0.1,0,0.1l0.8,3.5c0,0,0,0.1,0,0.1l0.4,3.6l0.8,7.1
			l0.2,3.6l0.3,7.2C534.2,567.7,533.6,568.4,532.7,568.5C532.7,568.5,532.7,568.5,532.7,568.5z"/>
	</g>
	<g>
		<path class="st0" d="M532.7,521.1c-0.8,0-1.5-0.7-1.5-1.5l0-3.6l0.2-3.7l0.5-7.2l0.5-3.6c0,0,0-0.1,0-0.1l0.7-3.5l0.6-3.5l0.8-3.5
			c0,0,0-0.1,0-0.1l1.1-3.4l1.4-3.4l1.5-3.3l1.6-3.3c0-0.1,0.1-0.1,0.1-0.2l2.1-2.9l2.2-2.9c0.1-0.1,0.1-0.1,0.2-0.2l2.6-2.4
			c0,0,0.1,0,0.1-0.1l2.8-2.2c0.1-0.1,0.2-0.1,0.3-0.2l3.2-1.6l3.4-1.4c0.1,0,0.2-0.1,0.2-0.1l3.5-0.8c0.1,0,0.2,0,0.2,0l3.6-0.3
			c0,0,0.1,0,0.1,0l3.6,0.1c0.1,0,0.1,0,0.2,0l3.5,0.6c0.1,0,0.1,0,0.2,0l3.4,1c0.8,0.2,1.2,1.1,1,1.9c-0.2,0.8-1.1,1.2-1.9,1
			l-3.3-1l-3.3-0.5l-3.4-0.1l-3.4,0.2l-3.2,0.8l-3.2,1.3l-3,1.5l-2.6,2.1l-2.5,2.3l-2.1,2.7l-2,2.8l-1.5,3.1l-1.4,3.2l-1.3,3.3
			l-1.1,3.2l-0.8,3.4l-0.6,3.4l-0.7,3.5l-0.4,3.5l-0.5,7l-0.2,3.5l0,3.5C534.2,520.4,533.5,521.1,532.7,521.1
			C532.7,521.1,532.7,521.1,532.7,521.1z"/>
	</g>
	<g>
		<path class="st0" d="M532.6,391.8c0,0-0.1,0-0.1,0c-0.8-0.1-1.4-0.8-1.4-1.6l0.3-3.6c0-0.1,0-0.2,0-0.2l0.9-3.5
			c0-0.1,0-0.1,0.1-0.2l1.4-3.3c0-0.1,0.1-0.2,0.1-0.2l1.9-3c0-0.1,0.1-0.1,0.1-0.2l2.4-2.7c0.1-0.1,0.1-0.1,0.2-0.2l2.7-2.3
			c0.1-0.1,0.1-0.1,0.2-0.1l3.1-1.8c0.1,0,0.2-0.1,0.2-0.1l3.4-1.2c0.1,0,0.2-0.1,0.3-0.1l3.6-0.4c0.8-0.1,1.6,0.5,1.7,1.3
			c0.1,0.8-0.5,1.6-1.3,1.7l-3.4,0.4l-3.1,1.1l-2.9,1.7l-2.6,2.1l-2.2,2.5l-1.8,2.8l-1.3,3.1l-0.8,3.2l-0.3,3.4
			C534,391.3,533.3,391.8,532.6,391.8z"/>
	</g>
	<g>
		<path class="st0" d="M548.1,389.3c-0.4,0-0.9-0.2-1.2-0.6c-0.4-0.5-0.4-1.3-0.1-1.8l1.8-2.5l0.6-2.9l0-3.1l-0.6-3l-1.1-2.6
			l-2.4-1.8c-0.4-0.3-0.7-0.9-0.6-1.5c0.1-0.6,0.5-1,1.1-1.2l3.7-1.1c0.2-0.1,0.4-0.1,0.6,0l3.5,0.5c0.2,0,0.5,0.1,0.7,0.3l2.8,2.1
			c0.2,0.2,0.4,0.4,0.5,0.6l1.4,3.2c0.1,0.2,0.1,0.4,0.1,0.6l0.1,3.5c0,0.2,0,0.4-0.1,0.5l-1.2,3.3c-0.1,0.1-0.1,0.3-0.2,0.4
			l-2.1,2.8c-0.1,0.1-0.2,0.2-0.3,0.3l-2.8,2.1c-0.1,0.1-0.2,0.1-0.3,0.2l-3.3,1.4C548.5,389.2,548.3,389.3,548.1,389.3z
			 M549.3,370.4l0.3,0.2c0.2,0.2,0.4,0.4,0.5,0.6l1.4,3.1c0,0.1,0.1,0.2,0.1,0.3l0.7,3.3c0,0.1,0,0.2,0,0.3l0.1,3.4
			c0,0.1,0,0.2,0,0.3l-0.5,2.2l1.4-1l1.9-2.5l1-2.9l-0.1-3l-1.1-2.6l-2.2-1.6l-2.8-0.4L549.3,370.4z"/>
	</g>
	<g>
		<path class="st0" d="M478.5,770.2c-0.6,0-1.1-0.4-1.4-0.9l-1.2-3l-1.4-2.8l-1.3-3l-1.3-2.9c0-0.1-0.1-0.2-0.1-0.2l-0.9-3.2
			c0,0,0-0.1,0-0.1l-0.6-3.3c0-0.1,0-0.1,0-0.2l-0.1-3.4c0-0.1,0-0.2,0-0.3l0.6-3.3c0-0.1,0.1-0.2,0.1-0.3l1.3-3.1
			c0-0.1,0.1-0.2,0.1-0.2l1.9-2.8c0.1-0.1,0.1-0.2,0.2-0.2l2.4-2.4c0.1-0.1,0.1-0.1,0.2-0.2l2.9-2c0.1,0,0.1-0.1,0.2-0.1l3.2-1.4
			c0,0,0.1,0,0.1-0.1l3.3-1.1c0.1,0,0.2,0,0.2-0.1l3.5-0.5c0.1,0,0.1,0,0.2,0l3.5-0.1c0,0,0.1,0,0.2,0l3.5,0.3c0,0,0.1,0,0.1,0
			l3.5,0.5c0.1,0,0.1,0,0.2,0l3.4,0.9c0.6,0.2,1,0.6,1.1,1.2c0.1,0.6-0.2,1.2-0.7,1.5l-3,1.9l-3,2l-2.9,2l-2.7,2.3l-2.6,2.4
			l-2.4,2.5l-2.2,2.7l-1.9,2.9l-1.6,3.1l-1.4,3.2l-0.9,3.3l-0.6,3.4l-0.3,3.6c-0.1,0.7-0.6,1.3-1.3,1.4
			C478.7,770.2,478.6,770.2,478.5,770.2z M474.7,756.4l1.3,2.8l1.6,3.8l0.3-1.8c0,0,0-0.1,0-0.1l0.9-3.5c0-0.1,0-0.1,0.1-0.2
			l1.4-3.3c0,0,0-0.1,0.1-0.1l1.7-3.2c0,0,0-0.1,0.1-0.1l2-3c0,0,0.1-0.1,0.1-0.1l2.2-2.9c0,0,0.1-0.1,0.1-0.1l2.6-2.6l2.7-2.5
			l2.7-2.4c0,0,0.1-0.1,0.1-0.1l3-2.1l3.3-2.2l0,0l-3.3-0.5l-3.4-0.3L491,732l-3.3,0.5l-3.1,1l-3,1.4l-2.7,1.8l-2.2,2.2l-1.7,2.5
			l-1.2,2.8l-0.5,3l0.1,3.1l0.5,3.1L474.7,756.4z"/>
	</g>
	<g>
		<path class="st0" d="M504.7,733.5c-0.2,0-0.4,0-0.6-0.1l-3.1-1.5l-3.2-1.4l-3.3-1.2l-3.3-1l-6.8-1.7l-3.5-0.6l-3.5-0.5l-3.5-0.6
			l-3.5-0.3l-3.5-0.1l-3.4,0l-6.9,0.7l-3.4,0.6l-3.3,1c-0.6,0.2-1.3-0.1-1.7-0.6c-0.4-0.5-0.3-1.3,0.1-1.8l2.2-2.7
			c0,0,0.1-0.1,0.1-0.1l2.6-2.5c0,0,0.1-0.1,0.1-0.1l2.8-2.2c0.1,0,0.1-0.1,0.2-0.1l6.1-3.6c0.1,0,0.1-0.1,0.2-0.1l3.3-1.3
			c0.1,0,0.1,0,0.2-0.1l6.9-1.6c0.1,0,0.2,0,0.2,0l3.5-0.2c0,0,0.1,0,0.1,0l3.5,0.1c0.1,0,0.1,0,0.2,0l3.5,0.5c0,0,0.1,0,0.1,0
			l3.7,0.9c0.1,0,0.2,0,0.2,0.1l3.5,1.5c0.1,0,0.2,0.1,0.3,0.1l3.1,2.1c0,0,0.1,0.1,0.1,0.1l2.9,2.5c0.1,0,0.1,0.1,0.1,0.1l2.5,2.8
			c0,0.1,0.1,0.1,0.1,0.2l2.1,3.2c0,0.1,0.1,0.1,0.1,0.2l1.7,3.4c0,0.1,0.1,0.1,0.1,0.2l1.2,3.5c0.2,0.6,0,1.2-0.4,1.6
			C505.4,733.4,505,733.5,504.7,733.5z M463.4,721.6C463.4,721.6,463.4,721.6,463.4,721.6l3.6,0l3.6,0.1l3.6,0.3c0,0,0.1,0,0.1,0
			l3.5,0.6l3.5,0.5l3.6,0.6c0,0,0.1,0,0.1,0l6.9,1.7l3.5,1.1l3.4,1.2c0,0,0.1,0,0.1,0l3.2,1.4l0-0.1l-1.6-3.2l-2-3l-2.4-2.7
			l-2.7-2.3l-3-2l-3.2-1.4l-3.5-0.8l-3.4-0.5l-3.4-0.1l-3.4,0.2l-6.7,1.5l-3.1,1.2l-5.9,3.5l-2.6,2.1l-1.4,1.3l2.2-0.4
			c0,0,0.1,0,0.1,0l7.1-0.8C463.3,721.6,463.3,721.6,463.4,721.6z"/>
	</g>
	<g>
		<path class="st0" d="M532.6,764.6c-0.8,0-1.4-0.6-1.5-1.4l-0.3-3.4l-0.6-3.3l-0.9-3.2l-1.3-3.1l-1.7-2.9l-1.9-2.8l-2.2-2.5
			l-2.4-2.3l-2.8-1.9l-2.8-1.7l-3.1-1.2l-3.2-0.9l-3.4-0.2c-0.8-0.1-1.4-0.8-1.4-1.6c0.1-0.8,0.8-1.4,1.6-1.4l3.5,0.3
			c0.1,0,0.2,0,0.3,0.1l3.4,1c0,0,0.1,0,0.1,0l3.3,1.3c0.1,0,0.2,0.1,0.2,0.1l3,1.8l3,2.1c0.1,0,0.1,0.1,0.2,0.1l2.6,2.4
			c0,0,0.1,0.1,0.1,0.1l2.3,2.7c0,0,0.1,0.1,0.1,0.1l2,2.9c0,0,0,0.1,0.1,0.1l1.7,3.1c0,0.1,0.1,0.1,0.1,0.2l1.4,3.2
			c0,0.1,0,0.1,0.1,0.2l1,3.4c0,0,0,0.1,0,0.1l0.6,3.5c0,0,0,0.1,0,0.1l0.3,3.5c0.1,0.8-0.5,1.6-1.4,1.6
			C532.7,764.6,532.7,764.6,532.6,764.6z"/>
	</g>
	<g>
		<path class="st0" d="M532.6,439.7c-0.8,0-1.5-0.6-1.5-1.5l-0.1-3.4l-0.7-3.3l-0.9-3.2l-1.3-3.1l-1.6-2.9l-2-2.8l-2.2-2.6l-2.5-2.3
			l-2.7-2l-2.9-1.7l-3.1-1.2L508,409l-3.4-0.4c-0.8-0.1-1.4-0.8-1.3-1.7c0.1-0.8,0.8-1.4,1.7-1.3l3.5,0.4c0.1,0,0.1,0,0.2,0l3.4,0.9
			c0.1,0,0.1,0,0.2,0.1l3.3,1.3c0.1,0,0.1,0.1,0.2,0.1l3.1,1.8c0,0,0.1,0.1,0.1,0.1l2.8,2.1c0,0,0.1,0.1,0.1,0.1l2.6,2.4
			c0,0,0.1,0.1,0.1,0.1l2.3,2.7c0,0,0.1,0.1,0.1,0.1l2,2.9c0,0,0.1,0.1,0.1,0.1l1.7,3.1c0,0,0,0.1,0.1,0.1l1.4,3.2
			c0,0.1,0.1,0.1,0.1,0.2l0.9,3.4l0.7,3.5c0,0.1,0,0.2,0,0.3l0.1,3.5C534.1,439,533.4,439.7,532.6,439.7
			C532.6,439.7,532.6,439.7,532.6,439.7z"/>
	</g>
	<g>
		<path class="st0" d="M510.6,760.9c-0.2,0-0.4,0-0.6-0.1l-3.4-1.4c-0.1,0-0.1-0.1-0.2-0.1l-3.2-1.8c-0.1-0.1-0.2-0.1-0.3-0.2
			l-2.7-2.5c-0.1-0.1-0.1-0.1-0.2-0.2l-2.2-2.9c-0.1-0.1-0.1-0.2-0.2-0.3l-1.5-3.4c-0.1-0.1-0.1-0.2-0.1-0.4l-0.6-3.6
			c0-0.1,0-0.3,0-0.4l0.4-3.7c0-0.2,0.1-0.3,0.1-0.5l1.5-3.3c0.1-0.2,0.2-0.3,0.3-0.4l2.5-2.7c0.1-0.1,0.3-0.3,0.5-0.3l3.3-1.5
			c0.2-0.1,0.3-0.1,0.5-0.1l3.7-0.3c0.2,0,0.4,0,0.6,0.1l2.6,0.9l2.6,0.7c0.6,0.2,1,0.6,1.1,1.2c0.1,0.6-0.2,1.2-0.7,1.5l-2.7,1.7
			l-1.6,2.7l-1.1,3.2l-0.5,3.4l-0.1,3.4l0.3,3.4l1,3l2.1,2.6c0.4,0.5,0.5,1.3,0.1,1.8C511.5,760.7,511.1,760.9,510.6,760.9z
			 M504.9,755l1.6,0.9l-0.7-2.2c0-0.1-0.1-0.2-0.1-0.3l-0.4-3.6c0-0.1,0-0.1,0-0.2l0.1-3.6c0-0.1,0-0.1,0-0.2l0.6-3.6
			c0-0.1,0-0.2,0.1-0.3l1.2-3.4c0-0.1,0.1-0.2,0.1-0.3l1.9-3.1c0.1-0.2,0.3-0.4,0.5-0.5l0.2-0.1l-1.8-0.6l-3.1,0.2l-2.8,1.3
			l-2.1,2.3l-1.3,2.9l-0.3,3.2l0.6,3.2l1.4,3l2,2.7L504.9,755z"/>
	</g>
	<g>
		<g>
			<g>
				<path class="st0" d="M692.7,600.4c-0.3,0-0.5-0.1-0.8-0.2l-6.2-3.6l-3.1-1.9l-3.1-1.8c0,0-0.1,0-0.1-0.1l-3-2
					c0,0-0.1-0.1-0.1-0.1l-5.6-4.6l-2.7-2.5l-2.9-2.1c-0.1-0.1-0.2-0.2-0.3-0.3l-4.6-5.6l-2.5-2.6c0,0-0.1-0.1-0.1-0.1l-4.4-5.8
					c-0.1-0.1-0.1-0.1-0.1-0.2l-1.6-3.2l-1.9-3.1l-1.7-3.3l-3-6.8c0,0,0-0.1-0.1-0.1l-1.1-3.5l-1.3-3.3c0-0.1,0-0.1-0.1-0.2
					l-0.8-3.4l-1.4-3.2c0-0.1,0-0.1-0.1-0.2l-1.1-3.5c0,0,0-0.1,0-0.1l-1.6-7l-1.4-3.2c0-0.1,0-0.1-0.1-0.2l-1.1-3.5l-1-3.5
					l-1.1-3.4l-1.2-3.2l-1.8-3c-0.1-0.1-0.1-0.2-0.1-0.3l-1.1-3.3l-1.6-3l-1.9-2.9l-2.2-2.8l-2.1-2.8l-2.3-2.5l-2.6-2.3L613,484
					l-2.8-2l-3-1.8l-3.1-1.7l-3.1-1.6l-3-1.7l-3.3-1c-0.1,0-0.1,0-0.2-0.1l-3.2-1.5l-3.3-1.1c0,0-0.1,0-0.1,0l-3.2-1.4l-3.3-1.2
					l-3.4-1c0,0-0.1,0-0.1,0l-3.1-1.3c-0.7-0.3-1.1-1-0.9-1.7c0.2-0.7,0.9-1.2,1.6-1.2l7,0.5c0,0,0.1,0,0.1,0l3.5,0.6l3.5,0l3.7,0.2
					c0.1,0,0.1,0,0.2,0l3.5,0.7l3.5,0.2c0.1,0,0.1,0,0.2,0l3.4,0.7l3.5,0c0.1,0,0.3,0,0.4,0.1l3.4,1l3.5,0.2c0.1,0,0.2,0,0.3,0
					l3.5,0.9l3.5,1l3.5,0.6c0.1,0,0.1,0,0.2,0l3.5,0.9c0,0,0.1,0,0.1,0l3.4,1.3l3.4,1.3c0.1,0,0.1,0,0.2,0.1l3.2,1.7l3.2,1.6
					l3.3,1.4c0.1,0,0.2,0.1,0.3,0.2l2.9,2.1l2.9,2.2l2.9,2.3c0.1,0.1,0.1,0.1,0.2,0.2l2.4,2.7l2.5,2.6c0.1,0.1,0.1,0.1,0.2,0.2l2,3
					l2.3,2.8c0.1,0.1,0.1,0.2,0.2,0.3l1.7,3.2l1.5,3.3l1.6,3.2c0,0.1,0.1,0.2,0.1,0.3l0.8,3.4l1.4,3.1c0,0.1,0.1,0.2,0.1,0.3
					l0.8,3.5l0.7,3.5l0.8,3.4c0,0.1,0,0.2,0,0.3l0.2,3.5l0.7,3.4l0.6,3.6c0,0.1,0,0.1,0,0.2l0.2,3.5l0.6,3.4c0,0.1,0,0.1,0,0.2
					l0.2,3.6l0.4,3.5l0.4,3.5l0.3,3.6l0.4,3.4l0.8,3.4c0,0.1,0,0.1,0,0.2l0.4,3.5l0.6,3.4l0.8,3.4l1,3.3l0.9,3.5l1,3.2l1.8,2.9
					c0,0.1,0.1,0.1,0.1,0.2l1.4,3.1l1.9,2.8l2.2,2.6l2.5,2.2c0.6,0.5,0.7,1.4,0.2,2C693.7,600.2,693.2,600.4,692.7,600.4z
					 M681.1,590.2l3.8,2.2l-0.4-0.6c-0.1-0.1-0.1-0.2-0.1-0.2l-1.4-3.2l-1.8-3c-0.1-0.1-0.1-0.2-0.1-0.3l-1.1-3.4l-0.9-3.5l-1-3.4
					l-0.9-3.5l-0.6-3.6l-0.4-3.5l-0.8-3.4c0-0.1,0-0.1,0-0.2l-0.4-3.5l-0.3-3.6l-0.4-3.5l-0.4-3.6l-0.2-3.5l-0.6-3.4
					c0-0.1,0-0.1,0-0.2l-0.2-3.5l-0.6-3.4l-0.7-3.4c0-0.1,0-0.2,0-0.2l-0.2-3.4l-0.8-3.3l-0.7-3.6l-0.8-3.3l-1.4-3.1
					c0-0.1-0.1-0.2-0.1-0.3l-0.8-3.3l-1.5-3.1l-1.5-3.3l-1.6-3l-2.2-2.7c0,0-0.1-0.1-0.1-0.1l-1.9-2.9l-2.4-2.5l-2.4-2.7l-2.7-2.2
					l-2.8-2.2l-2.8-2l-3.2-1.3l-3.3-1.6l-3.2-1.7l-3.3-1.3l-3.3-1.2l-3.4-0.9l-3.5-0.6c-0.1,0-0.1,0-0.2,0l-3.5-1l-3.3-0.8l-3.5-0.2
					c-0.1,0-0.2,0-0.3-0.1l-3.3-0.9l-3.5,0c-0.1,0-0.2,0-0.3,0l-3.5-0.7l-3.5-0.2c-0.1,0-0.1,0-0.2,0l-3.5-0.7l-3.5-0.2l-2.4,0
					l1.9,0.8l3.3,1.1c0.1,0,0.1,0,0.2,0.1l3.1,1.5l3.3,1c0.1,0,0.2,0.1,0.3,0.1l3.1,1.7l3.1,1.6l3.2,1.8l3.1,1.9c0,0,0.1,0,0.1,0.1
					l2.9,2.1l2.8,2.3l2.7,2.4c0,0,0.1,0.1,0.1,0.1l2.4,2.6c0,0,0.1,0.1,0.1,0.1l2.1,2.9l2.2,2.8c0,0,0,0.1,0.1,0.1l2,3
					c0,0,0.1,0.1,0.1,0.1l1.7,3.1c0,0.1,0.1,0.2,0.1,0.3l1.1,3.3l1.7,3c0,0.1,0.1,0.2,0.1,0.3l1.2,3.4l1.2,3.5l1,3.6l1,3.4l1.4,3.3
					c0,0.1,0.1,0.2,0.1,0.3l1.6,7.1l1,3.3l1.5,3.3c0,0.1,0.1,0.2,0.1,0.3l0.8,3.5l1.3,3.3l1.1,3.5l2.9,6.6l1.7,3.1l1.8,3
					c0,0,0,0.1,0.1,0.1l1.6,3.1l4.2,5.7l2.5,2.6c0,0,0.1,0.1,0.1,0.1l4.5,5.5l2.9,2c0.1,0,0.1,0.1,0.2,0.1l2.7,2.5l5.5,4.5
					L681.1,590.2z"/>
			</g>
		</g>
		<g>
			<g>
				<path class="st0" d="M686.3,478.7c0,0-0.1,0-0.1,0l-3.6-0.3l-3.7-0.4l-3.6-0.5l-3.6-0.3c-0.1,0-0.2,0-0.2,0l-3.5-0.9l-3.5-0.7
					c-0.1,0-0.2-0.1-0.3-0.1l-3.3-1.4l-3.4-1.2l-3.4-1.2l-3.5-0.8c-0.1,0-0.1,0-0.2-0.1l-3.4-1.4l-3.2-1.4l-3.4-0.8l-3.6-1
					c0,0-0.1,0-0.1,0l-3.3-1.3l-3.4-0.5l-3.7-0.7l-3.6-0.5l-3.6-0.3l-3.7-0.1l-3.7-0.2l-3.6,0l-3.7,0l-3.7-0.1l-3.6,0.3l-3.6,0.1
					l-3.5,0.9c-0.1,0-0.2,0-0.3,0L586,464l-3.5,0.5l-3.3,1.3c0,0-0.1,0-0.1,0l-3.8,1.1c-0.7,0.2-1.4-0.1-1.8-0.8
					c-0.3-0.6-0.1-1.4,0.5-1.9l3.1-2.3c0.1,0,0.1-0.1,0.2-0.1l3.2-1.7l3.1-1.8l3.1-1.9l3.2-1.8l3-1.9c0,0,0.1,0,0.1-0.1l3.2-1.6
					l3.4-1.5l3.5-1.3l3.3-1.3c0,0,0.1,0,0.1,0l3.4-1.1l3.4-1.2c0,0,0.1,0,0.1,0l3.5-0.8l3.5-0.9l3.6-0.7l3.6-0.6l3.5-0.6
					c0.1,0,0.2,0,0.4,0l3.6,0.3l3.5,0.1l3.6,0c0,0,0.1,0,0.1,0l3.6,0.2c0.1,0,0.2,0,0.2,0l3.5,0.7l3.5,0.6c0.1,0,0.2,0,0.3,0.1
					l3.4,1.3l3.4,1.2c0.1,0,0.1,0,0.2,0.1l3.2,1.6l3.3,1.2c0,0,0.1,0,0.1,0.1l3.3,1.6c0.1,0,0.1,0.1,0.2,0.1l2.9,1.9l3.3,1.1
					c0,0,0.1,0,0.1,0.1l3.3,1.5l3.3,1.3l3.5,1c0,0,0.1,0,0.1,0l3.3,1.2l3.5,0.7l3.6,0.8c0.1,0,0.1,0,0.2,0l3.3,1.1l3.5,0.1
					c0.1,0,0.1,0,0.2,0l3.5,0.5l3.5-0.2c0.1,0,0.2,0,0.2,0l3.5,0.4l3.4-0.3l3.3-0.7c0.7-0.2,1.3,0.2,1.7,0.8
					c0.3,0.6,0.2,1.3-0.3,1.8l-2.5,2.3c-0.1,0.1-0.1,0.1-0.2,0.2l-6.2,3.8l-6.3,3.7c-0.1,0-0.1,0.1-0.2,0.1l-3.4,1.3l-3.3,1.4
					c-0.1,0-0.2,0.1-0.3,0.1l-3.6,0.8l-3.5,0.9c0,0-0.1,0-0.1,0l-3.6,0.6l-3.7,0.5C686.4,478.7,686.4,478.7,686.3,478.7z
					 M672.1,474.3l3.5,0.3l3.7,0.5l3.6,0.4l3.4,0.3l3.5-0.4l3.5-0.5l3.4-0.9l3.5-0.8l3.2-1.4l3.4-1.3l6.2-3.6l3.9-2.4l-1.3,0.1
					c-0.1,0-0.2,0-0.3,0l-3.6-0.4l-3.6,0.2c-0.1,0-0.2,0-0.3,0l-3.5-0.5l-3.6-0.1c-0.1,0-0.3,0-0.4-0.1l-3.4-1.2l-3.5-0.8l-3.6-0.7
					c-0.1,0-0.1,0-0.2-0.1l-3.4-1.2l-3.5-1c0,0-0.1,0-0.1,0l-3.4-1.3l-3.3-1.5l-3.4-1.2c-0.1,0-0.2-0.1-0.4-0.2l-3-2l-3.1-1.5
					l-3.3-1.2c-0.1,0-0.1,0-0.2-0.1l-3.1-1.6l-3.3-1.1l-3.3-1.2l-3.4-0.6l-3.5-0.7l-3.5-0.2l-3.6,0l-3.6-0.1l-3.5-0.3l-3.4,0.6
					l-3.6,0.6l-3.5,0.7l-3.4,0.9l-3.5,0.8l-3.3,1.1l-3.4,1.1l-3.3,1.3l-3.4,1.3l-3.2,1.4l-3.1,1.6l-3,1.9l-3.2,1.8l-3.5,2.1l0.9-0.1
					c0,0,0.1,0,0.1,0l3.6-0.2l3.5-0.9c0.1,0,0.2,0,0.3,0l3.7-0.2l3.6-0.3c0.1,0,0.1,0,0.2,0l3.7,0.2l3.6,0l3.7,0l3.8,0.2l3.7,0.1
					c0,0,0.1,0,0.1,0l3.7,0.4l3.7,0.5l3.7,0.7l3.6,0.5c0.1,0,0.2,0,0.3,0.1l3.3,1.3l3.4,1l3.5,0.8c0.1,0,0.2,0,0.3,0.1l3.4,1.4
					l3.2,1.3l3.5,0.8c0.1,0,0.1,0,0.2,0.1l3.4,1.3l3.4,1.2c0,0,0.1,0,0.1,0l3.2,1.4l3.4,0.7L672.1,474.3z"/>
			</g>
		</g>
		<g>
			<g>
				<path class="st0" d="M575.1,466.7c-0.2,0-0.4,0-0.5-0.1c-0.6-0.2-1-0.9-1-1.6l0.4-3.6l0.7-3.7c0,0,0-0.1,0-0.1l1-3.5
					c0,0,0-0.1,0-0.1l1.2-3.4c0-0.1,0.1-0.2,0.1-0.2l3.5-6.4c0-0.1,0.1-0.2,0.2-0.2l2.4-2.8l2.2-2.8c0.1-0.1,0.1-0.2,0.2-0.2
					l5.7-4.6c0,0,0.1,0,0.1-0.1l3-2.1c0.1,0,0.1-0.1,0.2-0.1l3.3-1.6l3.4-1.4c0,0,0.1,0,0.1,0l3.5-1.2c0,0,0.1,0,0.1,0l7.1-1.7
					c0.1,0,0.1,0,0.2,0l3.6-0.4c0,0,0.1,0,0.1,0l11-0.3c0,0,0.1,0,0.1,0l3.7,0.2l3.7,0.4c0,0,0.1,0,0.1,0l3.6,0.7l3.6,0.6l3.6,0.8
					l3.6,0.8l3.5,0.7c0.1,0,0.1,0,0.2,0.1l3.4,1.2l3.5,1c0.7,0.2,1.2,0.9,1.1,1.6c-0.1,0.7-0.7,1.3-1.5,1.3c0,0,0,0,0,0l-3.7,0
					l-3.5,0.1l-3.5,0.4l-3.7,0.3l-7.1,0.7l-3.5,0.6l-3.6,0.4l-6.9,1.6l-3.5,0.7l-3.3,1.1c0,0-0.1,0-0.1,0l-3.4,0.8l-3.4,1.1L607,443
					l-3.2,1.6l-3.3,1.4l-3,1.8c0,0-0.1,0-0.1,0l-3.2,1.6l-2.9,1.9l-2.7,2.3c0,0-0.1,0.1-0.1,0.1l-2.9,2l-2.5,2.3l-2.3,2.7l-2.5,2.6
					l-1.9,2.8C576.1,466.4,575.6,466.7,575.1,466.7z M577.7,458.3l-0.3,1.5l1.2-1.2l2.3-2.7c0,0,0.1-0.1,0.1-0.1l2.7-2.4
					c0,0,0.1-0.1,0.1-0.1l2.9-2l2.7-2.3c0,0,0.1-0.1,0.2-0.1l3-2c0,0,0.1-0.1,0.2-0.1l3.2-1.6l3.1-1.8c0.1,0,0.1-0.1,0.2-0.1
					l3.3-1.4l3.2-1.6c0,0,0.1,0,0.1-0.1l3.4-1.3l3.5-1.2c0,0,0.1,0,0.1,0l3.4-0.8l3.4-1.1c0.1,0,0.1,0,0.2-0.1l3.5-0.7l7-1.6
					c0.1,0,0.1,0,0.2,0l3.6-0.4l3.5-0.6c0,0,0.1,0,0.1,0l7.2-0.7l3.6-0.3l1.6-0.2l-1.5-0.3l-3.6-0.8l-3.5-0.8l-3.5-0.6l-3.6-0.7
					l-3.6-0.4l-3.5-0.2l-10.8,0.3l-3.5,0.4l-7,1.6l-3.3,1.1l-3.3,1.4l-3.1,1.5l-2.9,2l-5.5,4.4l-2.2,2.7l-2.3,2.7l-3.4,6.1l-1.1,3.3
					L577.7,458.3z"/>
			</g>
		</g>
		<g>
			<g>
				<path class="st0" d="M577.2,595.8c-0.3,0-0.7-0.1-1-0.3c-0.5-0.4-0.7-1.1-0.4-1.7l1.2-3.2l2.1-6.7l0.7-3.5c0,0,0-0.1,0-0.1
					l1-3.5l0.8-3.4l1-3.5l0.8-3.4l0.6-3.5c0,0,0-0.1,0-0.1l0.9-3.4l0.6-3.4l0.3-3.5c0-0.1,0-0.1,0-0.2l0.8-3.4l0-3.5
					c0-0.1,0-0.1,0-0.2l0.5-3.5l0.2-3.5c0-0.1,0-0.1,0-0.2l0.7-3.5l0.2-3.4l-0.1-3.6l0-3.6c0,0,0-0.1,0-0.1l0.3-3.5l-0.6-7.1
					l-0.2-3.7l0-3.6l-0.7-3.4l-0.8-3.5c0,0,0-0.1,0-0.1l-0.5-3.5L585,492l-0.8-3.4l-1.3-3.3c0-0.1,0-0.1-0.1-0.2l-0.8-3.4l-1.3-3.3
					l-1.4-3.2l-3.8-6l-1.9-3.4c-0.3-0.6-0.2-1.2,0.2-1.7c0.4-0.5,1.1-0.6,1.7-0.4l3.6,1.4l3.4,1.4c0.1,0,0.1,0.1,0.2,0.1l3.1,1.8
					l3.1,1.9l3.1,1.7l3.2,1.9c0.1,0,0.1,0.1,0.2,0.1l5.6,4.6c0,0,0.1,0.1,0.1,0.1l2.6,2.5c0,0,0,0.1,0.1,0.1l2.4,2.7l2.3,2.8
					l2.2,2.9c0,0.1,0.1,0.1,0.1,0.2l1.7,3.2l1.8,3.1c0,0,0,0.1,0.1,0.1l1.5,3.3c0,0.1,0,0.1,0.1,0.2l1.1,3.5l1,3.5
					c0,0.1,0,0.2,0,0.2l0.4,3.5l0.8,3.4c0,0.1,0,0.2,0,0.3l0.2,3.6c0,0.1,0,0.1,0,0.2l-0.2,3.5l0.2,3.5c0,0.1,0,0.2,0,0.3l-0.5,3.6
					l-1.1,7.1l-0.7,3.6l-0.9,3.6c0,0.1,0,0.2-0.1,0.2l-1.4,3.3l-1.2,3.3l-1.4,3.4c0,0,0,0.1,0,0.1l-1.6,3.2l-1.4,3.3l-1.7,3.3
					c0,0.1-0.1,0.1-0.1,0.2l-2,2.9l-1.8,3.1c0,0,0,0.1-0.1,0.1l-2,3c0,0.1-0.1,0.1-0.1,0.2l-2.3,2.7l-2.1,2.9l-2.4,2.8
					c0,0-0.1,0.1-0.1,0.1l-2.6,2.4l-2.3,2.7c0,0-0.1,0.1-0.1,0.1l-2.6,2.5c0,0-0.1,0.1-0.1,0.1l-2.8,2.3l-2.9,2.2
					c-0.1,0-0.1,0.1-0.2,0.1l-2.9,1.7C577.7,595.7,577.5,595.8,577.2,595.8z M582.7,581l-0.7,3.5c0,0,0,0.1,0,0.1l-1.9,6l2-1.6
					l2.7-2.2l2.5-2.4l2.4-2.7c0,0,0.1-0.1,0.1-0.1l2.6-2.4l2.3-2.7l2.1-2.8c0,0,0.1-0.1,0.1-0.1l2.3-2.6l1.9-2.9l1.8-3.1
					c0,0,0-0.1,0.1-0.1l2-2.9l1.6-3.1l1.4-3.2l1.6-3.2l1.3-3.3l1.2-3.3l1.4-3.3l0.8-3.4l0.6-3.5l1.1-7.1l0.5-3.4l-0.2-3.5
					c0,0,0-0.1,0-0.1l0.2-3.5l-0.2-3.4l-0.8-3.4c0-0.1,0-0.1,0-0.2l-0.4-3.5l-1-3.4l-1-3.3l-1.4-3.1l-1.8-3.1l-1.7-3.1l-2.1-2.8
					l-2.3-2.7l-2.3-2.7l-2.5-2.5l-5.4-4.5l-3-1.8l-3.1-1.7l-3.1-1.9l-3-1.7l-2.8-1.2l3.6,5.7c0,0.1,0.1,0.1,0.1,0.2l1.4,3.3l1.3,3.4
					c0,0.1,0,0.1,0.1,0.2l0.8,3.4l1.3,3.3c0,0.1,0,0.1,0.1,0.2l0.8,3.5l0.9,3.5c0,0.1,0,0.1,0,0.2l0.5,3.5l0.8,3.5l0.7,3.6
					c0,0.1,0,0.2,0,0.3l0,3.6l0.2,3.5l0.6,7.1c0,0.1,0,0.2,0,0.2l-0.3,3.5l0,3.5l0.1,3.6c0,0,0,0.1,0,0.1l-0.2,3.6
					c0,0.1,0,0.1,0,0.2l-0.7,3.5l-0.2,3.5c0,0,0,0.1,0,0.1l-0.5,3.5l0,3.5c0,0.1,0,0.2,0,0.3l-0.8,3.4l-0.3,3.5c0,0,0,0.1,0,0.1
					L588,560c0,0,0,0.1,0,0.1l-0.9,3.4l-0.6,3.5l-0.8,3.6l-1,3.5l-0.8,3.4L582.7,581z"/>
			</g>
		</g>
		<g>
			<g>
				<path class="st0" d="M564.5,541.9c-0.2,0-0.4,0-0.6-0.1c-0.7-0.3-1-1.1-0.8-1.8l1-3.5l0.7-3.3l0.9-10.4l-0.2-3.4l0-3.6l-0.2-3.5
					l-0.4-3.4c0,0,0-0.1,0-0.1l-0.1-3.5l-0.4-3.5c0,0,0-0.1,0-0.1l-0.1-3.5l-0.2-3.5c0-0.1,0-0.1,0-0.2l0.2-3.5l0.1-3.5
					c0,0,0-0.1,0-0.1l0.3-3.5c0-0.1,0-0.2,0-0.2l1.8-6.9c0-0.1,0-0.1,0.1-0.2l1.3-3.3c0,0,0-0.1,0.1-0.1l1.7-3.1
					c0,0,0.1-0.1,0.1-0.1l2-2.9c0-0.1,0.1-0.1,0.1-0.2l2.4-2.6c0.3-0.4,0.8-0.5,1.3-0.5c0.5,0.1,0.9,0.4,1.1,0.8l1.7,3.2
					c0,0.1,0.1,0.2,0.1,0.2l1.1,3.4l1,3.5c0,0.1,0,0.1,0,0.2l0.6,3.6l0.5,3.6l0.3,3.7l0.2,3.7c0,0.1,0,0.1,0,0.2l-0.2,3.6l-0.1,3.5
					c0,0.1,0,0.1,0,0.2l-0.4,3.6l-0.3,3.5c0,0.1,0,0.1,0,0.2l-2.3,10.6l-0.8,3.5c0,0.1,0,0.2-0.1,0.2l-1.4,3.3l-1.1,3.4
					c0,0.1-0.1,0.2-0.1,0.2l-3.2,6.4c0,0,0,0.1-0.1,0.1l-1.9,3.1l-4.3,6.1C565.4,541.6,564.9,541.9,564.5,541.9z M567.6,508.5
					l0.4,3.5l0.3,3.6c0,0,0,0.1,0,0.1l0,3.5l0.2,3.5c0,0.1,0,0.1,0,0.2l-0.9,10.3l1.6-2.6l3.1-6.3l1-3.3c0,0,0-0.1,0-0.1l1.3-3.2
					l1.6-6.9l1.5-6.9l0.3-3.5l0.4-3.6l0.1-3.5l0.2-3.6l-0.2-3.5l-0.3-3.5l-0.5-3.5l-0.6-3.4l-1-3.4l-1-3.3l-0.6-1.2l-0.9,1l-1.9,2.8
					l-1.6,3l-1.3,3.1l-1.8,6.6l-0.3,3.4l-0.1,3.5l-0.2,3.5l0.2,3.4l0.1,3.5l0.4,3.5c0,0,0,0.1,0,0.1L567.6,508.5z"/>
			</g>
		</g>
	</g>
	<g>
		<g>
			<g>
				<path class="st0" d="M383.8,634.8c-0.4,0-0.9-0.2-1.2-0.5c-0.5-0.6-0.5-1.4,0.1-2l2.6-2.8l2.2-2.7l2.1-2.7l1.6-2.9l1.1-3.3
					c0,0,0-0.1,0-0.1l1.3-3.2l0.9-3.4l1-3.4l0.7-3.5l0.5-3.5l0.9-7.1l0.2-3.5c0,0,0-0.1,0-0.1l0.5-3.4l0-3.5c0-0.1,0-0.2,0-0.3
					l0.7-3.5l0.3-3.5c0-0.1,0-0.1,0-0.2l0.7-3.4l0.2-3.5c0-0.1,0-0.1,0-0.2l1.3-7c0-0.1,0-0.1,0-0.2l1.1-3.4l0.9-3.4l1.1-3.5
					c0,0,0-0.1,0-0.1l1.3-3.3c0-0.1,0.1-0.1,0.1-0.2l3.5-6.3c0-0.1,0.1-0.1,0.1-0.2l4.4-5.8l2.3-2.9c0.1-0.1,0.1-0.1,0.2-0.2
					l5.6-4.7c0.1,0,0.1-0.1,0.2-0.1l3.1-2l3-2.1c0.1-0.1,0.2-0.1,0.2-0.1l3.3-1.5l6.8-2.8c0,0,0.1,0,0.1,0l3.5-1.1c0,0,0.1,0,0.1,0
					l3.6-0.9l3.6-0.8l3.6-0.5l3.5-0.9c0,0,0.1,0,0.1,0l3.6-0.6c0,0,0.1,0,0.1,0l7.3-0.7l3.6-0.3l3.5-0.7c0.1,0,0.2,0,0.3,0l3.6,0
					l7.2-0.7l3.4-0.3c0.8-0.1,1.5,0.5,1.6,1.2s-0.3,1.5-1.1,1.7l-3.2,0.9l-6.6,2.4l-3.2,1.3l-3.2,1.4c0,0-0.1,0-0.1,0l-3.3,1.2
					l-3.2,1.3l-3,1.7l-3,1.8l-3.1,1.8l-2.8,1.8l-2.5,2.3l-2.6,2.3l-2.2,2.5l-1.9,2.9l-2.1,2.9l-1.8,2.9l-1.5,3.1l-1.3,3.2l-1.1,3.3
					l-1.4,3.4l-2,6.9l-1.2,3.5l-1,3.4l-0.9,3.5c0,0,0,0.1,0,0.1l-1.3,3.4l-1.2,3.4l-1.1,3.4l-1.2,3.5c0,0,0,0.1,0,0.1l-1.5,3.3
					l-1.6,3.3l-1.3,3.4c0,0.1-0.1,0.2-0.2,0.3l-2,3l-1.8,3.1c0,0.1-0.1,0.1-0.1,0.2l-2.4,2.8l-2.2,2.8c0,0,0,0.1-0.1,0.1l-2.4,2.7
					c0,0-0.1,0.1-0.1,0.1l-2.7,2.5l-2.5,2.6c0,0-0.1,0.1-0.1,0.1l-2.8,2.3l-3,2.2l-2.7,2.3c-0.1,0.1-0.1,0.1-0.2,0.1l-3.1,1.9
					l-3.2,1.8l-3.1,1.8l-3.2,2.1C384.4,634.7,384.1,634.8,383.8,634.8z M395.2,618.9l-1.1,3.4c0,0.1-0.1,0.2-0.1,0.3l-1.7,3.2
					c0,0.1-0.1,0.1-0.1,0.2l-1,1.3l1.6-0.9l3-1.8l2.7-2.3l3-2.2l2.7-2.2l2.5-2.5l2.7-2.5l2.4-2.6l2.2-2.8l2.3-2.8l1.8-3l2-3l1.3-3.3
					c0,0,0-0.1,0.1-0.1l1.6-3.3l1.5-3.2l1.2-3.4l1.1-3.4l1.2-3.5l1.3-3.4l0.9-3.5l1-3.5l1.2-3.5l2-7c0-0.1,0-0.1,0.1-0.2l1.4-3.4
					l1.1-3.3l1.4-3.4c0,0,0-0.1,0-0.1l1.6-3.2c0,0,0-0.1,0.1-0.1l1.9-3l2.1-2.9l1.9-2.9c0-0.1,0.1-0.1,0.1-0.2l2.4-2.6
					c0,0,0.1-0.1,0.1-0.1l2.7-2.3l2.6-2.4c0.1-0.1,0.2-0.1,0.2-0.2l3-1.9l3.1-1.8l3-1.8l3.1-1.8c0.1,0,0.1-0.1,0.2-0.1l3.3-1.3
					l3.3-1.2l3.2-1.5l1.9-0.8l-2.4,0l-3.5,0.7c-0.1,0-0.1,0-0.2,0l-3.6,0.3l-7.2,0.7l-3.5,0.6l-3.5,0.9c-0.1,0-0.1,0-0.2,0l-3.6,0.5
					l-3.5,0.7l-3.5,0.9l-3.4,1.1l-6.7,2.7l-3.2,1.4l-2.9,2l-3,1.9l-5.4,4.6l-2.2,2.7l-4.3,5.7l-3.4,6.1l-1.2,3.2l-1,3.4l-0.9,3.4
					l-1.1,3.4l-1.3,6.9l-0.2,3.5c0,0.1,0,0.1,0,0.2l-0.7,3.4l-0.3,3.5c0,0.1,0,0.1,0,0.2l-0.7,3.4l0,3.5c0,0.1,0,0.2,0,0.2l-0.5,3.5
					l-0.2,3.5l-0.9,7.2l-0.5,3.6l-0.7,3.6c0,0,0,0.1,0,0.1l-1,3.5l-0.9,3.4c0,0.1,0,0.1-0.1,0.2L395.2,618.9z"/>
			</g>
		</g>
		<g>
			<g>
				<path class="st0" d="M389.2,524.8C389.2,524.8,389.2,524.8,389.2,524.8l-3.6-0.2c-0.1,0-0.2,0-0.3-0.1l-3.4-1l-3.4-0.6
					c-0.1,0-0.2,0-0.3-0.1l-3.3-1.3l-3.3-1.4l-3.3-1.2c-0.1,0-0.1-0.1-0.2-0.1l-3.1-1.7c0,0-0.1,0-0.1-0.1l-3-1.9
					c-0.1,0-0.1-0.1-0.2-0.1l-2.6-2.3l-2.9-2c-0.6-0.4-0.8-1.1-0.6-1.8c0.3-0.7,1-1,1.6-0.9l3.5,0.6l3.4,0.1l3.5,0.2l3.5-0.1
					l3.4-0.2l3.3-0.9c0.1,0,0.1,0,0.2,0l3.5-0.5l3.3-0.7l3.1-1.3c0.1,0,0.2-0.1,0.3-0.1l3.4-0.6l3.1-1.3l3.1-1.6
					c0.1,0,0.2-0.1,0.3-0.1l3.3-1l3-1.6l3.2-1.8l3.3-1.7l3.4-1.5c0.1,0,0.1-0.1,0.2-0.1l7.1-1.9l3.6-0.8c0.1,0,0.1,0,0.2,0l3.6-0.3
					l3.7-0.1l3.7,0l3.7,0.1c0,0,0.1,0,0.1,0l3.6,0.4c0.1,0,0.1,0,0.2,0l3.5,0.8l3.5,0.5c0,0,0.1,0,0.1,0l3.6,0.8c0,0,0.1,0,0.1,0
					l3.5,1.2l3.5,1.4l3.4,1.2c0,0,0.1,0,0.1,0l6.7,2.9c0.1,0,0.1,0.1,0.2,0.1l3,1.9l3.2,1.5l3.3,1.7l6.3,3.8c0,0,0.1,0,0.1,0.1
					l3.1,2.2c0.6,0.4,0.8,1.2,0.4,1.9c-0.3,0.7-1.1,1-1.8,0.7l-3.4-1.2l-3.4-0.8l-7-1l-3.4-0.7l-3.4,0.1c0,0-0.1,0-0.1,0l-3.6-0.2
					l-3.5-0.1l-3.5,0.2c0,0-0.1,0-0.1,0l-3.6,0l-3.4,0l-3.4,0.7c-0.1,0-0.1,0-0.2,0l-7,0.7l-6.7,1.7l-3.3,1.2c-0.1,0-0.1,0-0.2,0
					l-3.4,0.8l-3.3,1.1l-3.2,1.3c0,0-0.1,0-0.1,0l-3.4,1.1l-6.6,2.5c0,0-0.1,0-0.1,0l-3.4,1c-0.1,0-0.1,0-0.2,0l-3.4,0.6l-3.4,0.9
					c-0.1,0-0.1,0-0.2,0l-3.5,0.4c-0.1,0-0.1,0-0.2,0l-3.6-0.1L389.2,524.8C389.3,524.8,389.2,524.8,389.2,524.8z M385.9,521.6
					l3.3,0.2l3.5-0.2l3.6,0.1l3.3-0.4l3.3-0.9c0,0,0.1,0,0.1,0l3.4-0.6l3.3-1l6.6-2.5l3.4-1.1l3.2-1.3l3.4-1.2c0,0,0.1,0,0.1,0
					l3.4-0.8l3.3-1.2c0,0,0.1,0,0.1,0l6.9-1.7c0.1,0,0.1,0,0.2,0l7.1-0.7l3.4-0.7c0.1,0,0.2,0,0.3,0l3.6,0l3.6,0l3.5-0.2
					c0,0,0.1,0,0.1,0l3.6,0.1l3.6,0.2l3.5-0.1c0.1,0,0.2,0,0.3,0l3.5,0.7l5.3,0.8l-1.7-1l-3.2-1.6l-3.3-1.5c-0.1,0-0.1-0.1-0.2-0.1
					l-3-1.9l-6.6-2.8l-3.4-1.2l-3.5-1.4l-3.3-1.1l-3.4-0.8l-3.5-0.5c-0.1,0-0.1,0-0.1,0l-3.5-0.8l-3.5-0.4l-3.6-0.1l-3.6,0l-3.6,0.1
					l-3.5,0.3l-3.5,0.8l-6.9,1.9l-3.2,1.5l-3.1,1.7l-3.1,1.8l-3.2,1.7c-0.1,0-0.2,0.1-0.3,0.1l-3.3,1l-3,1.6c0,0-0.1,0-0.1,0.1
					l-3.3,1.4c-0.1,0-0.2,0.1-0.3,0.1l-3.3,0.6l-3.1,1.3c-0.1,0-0.2,0.1-0.3,0.1l-3.5,0.7c0,0-0.1,0-0.1,0l-3.4,0.5l-3.3,0.9
					c-0.1,0-0.2,0-0.3,0l-3.5,0.2l-3.6,0.1c0,0-0.1,0-0.1,0l-3.5-0.2l-1.6,0l1.2,1.1l2.8,1.8l3,1.6l3.2,1.2l3.3,1.4l3.1,1.2l3.4,0.6
					c0.1,0,0.1,0,0.2,0L385.9,521.6z"/>
			</g>
		</g>
		<g>
			<g>
				<path class="st0" d="M490.1,514.1c-0.5,0-0.9-0.2-1.2-0.6l-2.2-2.9l-2.2-2.7l-5.3-4.8l-2.8-2.2l-3.1-1.8l-3.1-2l-3.2-1.7
					l-3.2-1.6l-3.3-1.3l-3.5-1.1l-3.5-1.2l-3.5-1.1l-3.5-0.9l-7.1-1.4l-7.2-1l-3.6-0.7l-3.6-0.3l-3.6-0.3l-7.3,0
					c-0.7,0-1.4-0.5-1.5-1.3c-0.1-0.7,0.3-1.4,1-1.7l6.9-2.1c0,0,0.1,0,0.1,0l6.9-1.5l6.9-1.4c0.1,0,0.1,0,0.2,0l7-0.7
					c0.1,0,0.1,0,0.2,0l7.1,0.1l3.6,0.1c0.1,0,0.1,0,0.2,0l10.4,1.9c0.1,0,0.1,0,0.2,0.1l3.3,1.2c0.1,0,0.1,0,0.1,0.1l6.4,3
					c0.1,0,0.1,0.1,0.2,0.1l3,1.9c0,0,0.1,0.1,0.1,0.1l2.8,2.2c0,0,0.1,0.1,0.1,0.1l2.5,2.5c0,0,0.1,0.1,0.1,0.1l2.3,2.7
					c0,0.1,0.1,0.1,0.1,0.2l1.8,3l1.7,3.2c0,0,0,0.1,0.1,0.1l1.3,3.3c0,0,0,0.1,0,0.1l1.1,3.4c0,0,0,0.1,0,0.1l0.8,3.4
					c0,0.1,0,0.2,0,0.2l0.3,3.5c0,0.7-0.3,1.3-1,1.5C490.4,514,490.3,514.1,490.1,514.1z M424.2,481.6l1.2,0.1l3.7,0.4
					c0,0,0.1,0,0.1,0l3.6,0.7l7.2,1l7.3,1.4l3.6,1l3.6,1.1l3.5,1.2l3.5,1.1c0,0,0.1,0,0.1,0l3.4,1.4c0,0,0.1,0,0.1,0.1l3.3,1.7
					l3.3,1.8c0,0,0.1,0,0.1,0.1l3.1,2l3.1,1.8c0.1,0,0.1,0.1,0.2,0.1l2.9,2.3c0,0,0.1,0,0.1,0.1l5.4,5c0,0,0.1,0.1,0.1,0.1l1.2,1.4
					l-0.3-1.3l-1-3.3l-1.3-3.1l-1.6-3l-1.7-2.9l-2.1-2.6l-2.4-2.4l-2.6-2.1l-2.8-1.8l-6.2-3l-3.2-1.1l-10.2-1.9l-3.4-0.1l-7-0.1
					l-6.9,0.7L424.2,481.6z"/>
			</g>
		</g>
		<g>
			<g>
				<path class="st0" d="M488.3,630.5c-0.3,0-0.6-0.1-0.8-0.2l-3-1.9c-0.1,0-0.1-0.1-0.2-0.2l-2.5-2.3l-2.9-1.9
					c-0.1-0.1-0.2-0.1-0.2-0.2l-2.6-2.5l-2.5-2.6c0,0-0.1-0.1-0.1-0.2l-2.1-2.8l-2.5-2.4c-0.1-0.1-0.1-0.1-0.2-0.2l-2-2.9l-2.1-2.8
					c0,0-0.1-0.1-0.1-0.1l-1.9-3l-2-2.9c0-0.1-0.1-0.1-0.1-0.2l-1.5-3.2l-1.7-3.1c-0.1-0.1-0.1-0.2-0.1-0.3l-1-3.3l-1.6-3.1
					c0-0.1-0.1-0.2-0.1-0.3l-2-6.9c0,0,0-0.1,0-0.1l-0.7-3.5l-0.6-3.6l-0.5-3.5l-0.6-3.5c0-0.1,0-0.3,0-0.4l0.3-3.6l0.1-3.5l0.2-3.6
					c0-0.1,0-0.1,0-0.2l0.7-3.5l0.8-3.5c0-0.1,0-0.1,0-0.2l1.2-3.3l1-3.4c0-0.1,0.1-0.2,0.1-0.2l1.6-3.2c0,0,0-0.1,0.1-0.1l1.9-3
					l2-3c0.1-0.1,0.1-0.2,0.2-0.2l2.4-2.5l2.2-2.8c0.1-0.1,0.1-0.1,0.2-0.2l2.6-2.4c0,0,0.1-0.1,0.1-0.1l2.8-2.1l2.7-2.3
					c0.1-0.1,0.1-0.1,0.2-0.1l3-1.9l3.2-1.7l3.3-1.5l3.1-1.7c0.1,0,0.1-0.1,0.2-0.1l3.2-1.2c0.6-0.2,1.3-0.1,1.7,0.4
					c0.4,0.5,0.5,1.2,0.2,1.7l-1.7,3l-1.8,3.1l-3,6.5l-1.2,3.4l-1,3.4l-1.8,7l-0.8,3.4l-0.3,3.5c0,0.1,0,0.1,0,0.2l-0.7,3.5
					l-0.8,10.7l0.2,3.6c0,0.1,0,0.1,0,0.2l-0.2,3.6l0.2,3.6l0.4,3.5c0,0,0,0.1,0,0.1l0.1,3.5l0.7,3.5c0,0.1,0,0.1,0,0.2l0.3,3.6
					l0.4,3.6l0.5,3.5l0.7,3.5l0.9,3.4c0,0.1,0,0.1,0,0.2l0.5,3.6l0.8,3.5l0.8,3.6l0.9,3.4l1,3.5l0.9,3.6l1,3.4l1.4,3.3
					c0.3,0.6,0.1,1.3-0.4,1.7C489,630.4,488.7,630.5,488.3,630.5z M480.6,621.5l2.9,1.9c0.1,0,0.1,0.1,0.2,0.2l1.4,1.3l-0.7-2.2
					l-0.9-3.6l-1-3.5l-1-3.6l-0.8-3.6l-0.8-3.5c0,0,0-0.1,0-0.1l-0.5-3.5l-0.9-3.4l-0.7-3.7c0,0,0-0.1,0-0.1l-0.5-3.6l-0.4-3.7
					l-0.3-3.6l-0.7-3.5c0-0.1,0-0.2,0-0.3l-0.1-3.6l-0.4-3.6l-0.2-3.7c0,0,0-0.1,0-0.1l0.2-3.6l-0.2-3.6c0-0.1,0-0.1,0-0.2l0.8-10.9
					c0-0.1,0-0.1,0-0.2l0.7-3.5l0.3-3.6c0-0.1,0-0.1,0-0.2l0.8-3.5l1.8-7.1l1.1-3.5l1.2-3.5c0,0,0-0.1,0.1-0.1l3.1-6.6
					c0,0,0-0.1,0.1-0.1l1.4-2.3l-2.1,1.1l-3.3,1.6l-3.1,1.6l-2.9,1.8l-2.6,2.3c0,0-0.1,0.1-0.1,0.1l-2.8,2l-2.5,2.3l-2.1,2.7
					c0,0-0.1,0.1-0.1,0.1l-2.4,2.5l-1.9,2.9l-1.8,2.9l-1.5,3l-1,3.3l-1.2,3.4l-0.8,3.4l-0.6,3.3l-0.2,3.5l-0.1,3.5l-0.3,3.5l0.6,3.3
					l0.6,3.6l0.6,3.5l0.7,3.4l1.9,6.7l1.6,3.1c0,0.1,0.1,0.2,0.1,0.3l1,3.3l1.7,3c0,0,0,0.1,0.1,0.1l1.5,3.1l1.9,2.9l1.9,3l2.1,2.8
					l2,2.9l2.4,2.4c0.1,0.1,0.1,0.1,0.1,0.2l2.1,2.8l2.4,2.5L480.6,621.5z"/>
			</g>
		</g>
		<g>
			<g>
				<path class="st0" d="M499.7,581.8c-0.5,0-0.9-0.2-1.2-0.6l-2.2-2.9c0,0-0.1-0.1-0.1-0.1l-1.9-3l-1.8-3.1c0,0,0-0.1-0.1-0.1
					l-3-6.5c0,0,0-0.1,0-0.1l-1.2-3.3c0,0,0-0.1,0-0.1l-1-3.4l-1.1-3.4c0,0,0-0.1,0-0.1l-0.7-3.5l-0.6-3.6c0,0,0-0.1,0-0.1l-0.3-3.6
					l-0.5-3.5c0-0.1,0-0.1,0-0.2l-0.1-3.6l0-3.6c0,0,0-0.1,0-0.1l0.3-3.6l0.8-7.1c0-0.1,0-0.2,0-0.2l0.9-3.5l1-3.5
					c0-0.1,0.1-0.2,0.1-0.3l1.6-3.1c0.2-0.4,0.7-0.7,1.2-0.8c0.5,0,1,0.1,1.3,0.5l2.3,2.8l2.3,3c0.1,0.1,0.1,0.2,0.2,0.3l1.6,3.4
					c0,0,0,0.1,0,0.1l1.3,3.5c0,0.1,0.1,0.2,0.1,0.3l0.6,3.6l0.5,3.7c0,0,0,0.1,0,0.1l0.3,7.4c0,0,0,0.1,0,0.1l-0.4,7.4l-0.3,3.7
					l-0.4,3.7l-0.2,3.6L499,562l-0.1,3.6l0.8,7.2l0.4,3.5l1.1,3.5c0.2,0.7-0.1,1.4-0.7,1.8C500.2,581.8,499.9,581.8,499.7,581.8z
					 M495.2,570.5l1.5,2.6l-0.8-7.4c0-0.1,0-0.1,0-0.2l0.1-3.7l0.1-3.7l0.2-3.7l0.4-3.8l0.3-3.6l0.4-7.3l-0.3-7.2l-0.5-3.6l-0.6-3.4
					l-1.2-3.3l-1.5-3.1l-3-3.8l-0.5,1l-1,3.3l-0.9,3.3l-0.8,7l-0.3,3.5l0,3.5l0.1,3.4l0.5,3.5l0.3,3.6l0.6,3.5l0.7,3.4l1,3.3l1,3.4
					l1.2,3.2L495.2,570.5z"/>
			</g>
		</g>
	</g>
	<g>
		<path class="st0" d="M640.4,668.2C640.4,668.2,640.3,668.2,640.4,668.2l-3.8-0.2c-0.1,0-0.2,0-0.3,0l-3.6-0.9l-3.5-0.7
			c-0.1,0-0.2,0-0.3-0.1l-3.4-1.3l-3.5-1l-3.5-1.2l-3.5-1l-3.4-1.2l-3.5-0.6l-3.5-0.7l-3.4-0.5l-3.5-0.1l-3.6-0.1l-7,0.1l-3.5,0.3
			l-3.5,0.5L577,660l-3.4,1.1c-0.7,0.2-1.5-0.1-1.8-0.8c-0.3-0.7-0.1-1.5,0.6-1.9l3.1-1.9l2.9-2c0.1,0,0.1-0.1,0.2-0.1l6.5-3.2
			l3.3-1.5l3.1-1.7c0.1-0.1,0.2-0.1,0.3-0.1l3.4-1l3.3-1.2c0.1,0,0.1,0,0.2-0.1l7-1.6c0.1,0,0.2,0,0.3,0l3.6,0l3.5-0.2l3.7,0.1
			c0.1,0,0.1,0,0.2,0l3.6,0.5c0.1,0,0.1,0,0.2,0l3.5,0.9l3.5,1c0.1,0,0.1,0,0.2,0.1l3.3,1.5l9.6,4.6l3.2,1.2l3.2,1l6.8,1.5l3.4,0.4
			l3.4,0.1l3.3-0.1l3.5-0.5c0.7-0.1,1.4,0.3,1.6,0.9c0.3,0.7,0,1.4-0.6,1.8l-3.2,2.1c0,0-0.1,0.1-0.1,0.1l-3.3,1.7l-6.8,3.1
			c-0.1,0-0.2,0.1-0.3,0.1l-3.5,0.8l-3.5,1.1c-0.1,0-0.3,0.1-0.4,0.1l-3.7,0.2L640.4,668.2C640.4,668.2,640.4,668.2,640.4,668.2z
			 M637,664.9l3.5,0.2l3.6,0l3.5-0.1l3.3-1c0,0,0.1,0,0.1,0l3.4-0.8l7.2-3.4l-0.7,0l-3.6-0.1c0,0-0.1,0-0.1,0l-3.5-0.5
			c0,0-0.1,0-0.1,0l-6.9-1.6c0,0-0.1,0-0.1,0l-3.4-1l-3.4-1.3c0,0-0.1,0-0.1-0.1l-9.6-4.6l-3.1-1.4l-3.4-1l-3.4-0.8l-3.4-0.5
			l-3.5-0.1l-3.5,0.2l-3.5,0l-6.8,1.6l-3.3,1.2c0,0-0.1,0-0.1,0l-3.3,0.9l-3,1.6l-3.3,1.6l-4.4,2.2l1.4-0.2l3.6-0.4c0,0,0.1,0,0.1,0
			l7.1-0.1l3.6,0.1l3.5,0.1c0.1,0,0.1,0,0.2,0l3.5,0.6l3.5,0.7l3.6,0.6c0.1,0,0.2,0,0.2,0.1l3.5,1.2l3.5,1l3.5,1.2l3.5,1.1
			c0,0,0.1,0,0.1,0l3.3,1.3l3.5,0.7L637,664.9z"/>
	</g>
	<g>
		<path class="st0" d="M615.3,767c-0.2,0-0.4,0-0.5-0.1c-0.7-0.3-1.1-1-0.9-1.7l1.3-7.2l0.5-3.4l0-3.5c0-0.1,0-0.1,0-0.2l0.4-3.5
			l-0.2-3.5l-0.4-3.5c0,0,0-0.1,0-0.1l-0.1-3.6l-0.3-3.4l-0.7-3.4c0-0.1,0-0.1,0-0.2l-0.3-3.5l-0.8-3.4l-1.4-7l-1.2-3.2
			c0,0,0-0.1,0-0.1l-2-6.9l-2.2-6.7l-1.4-3.2l-1.5-3.2l-1.4-3.3l-1.6-3l-2-2.8l-2-3.1l-1.8-3l-4.6-5.2l-2.5-2.5l-2.5-2.4l-2.8-2
			l-2.9-1.8l-3.2-1.2l-3.2-1.4c-0.6-0.2-0.9-0.8-0.9-1.5c0-0.6,0.5-1.2,1.1-1.3l3.4-1l3.6-0.8l3.6-0.7c0.1,0,0.1,0,0.2,0l7.3-0.6
			c0.1,0,0.3,0,0.4,0l3.5,0.6l3.6,0.3c0.1,0,0.2,0,0.3,0.1l3.5,1.1c0.1,0,0.2,0.1,0.2,0.1l3.3,1.6l3.2,1.8c0,0,0.1,0,0.1,0.1l3.1,2
			c0.1,0.1,0.2,0.2,0.3,0.3l2.4,2.7l2.5,2.6l2.4,2.8c0.1,0.1,0.1,0.2,0.2,0.2l1.8,3.2l1.9,3c0.1,0.1,0.1,0.2,0.1,0.3l1.3,3.3
			l1.6,3.2c0.1,0.1,0.1,0.2,0.1,0.3l0.9,3.5l1,3.4c0,0.1,0,0.1,0,0.2l0.6,3.6l0.8,3.5c0,0,0,0.1,0,0.1l0.5,3.6c0,0.1,0,0.1,0,0.2
			l0.1,3.6l0.3,3.5l0.2,7.3c0,0.1,0,0.1,0,0.2l-0.7,7.2l-0.5,3.7l-0.4,3.6l-0.6,3.7c0,0.1,0,0.1,0,0.2l-1,3.5l-0.8,3.4
			c0,0.1,0,0.1-0.1,0.2l-1.2,3.4l-1,3.4l-1.2,3.5c0,0,0,0.1-0.1,0.1l-1.5,3.3l-1.7,3.3l-1.5,3.2c0,0.1-0.1,0.1-0.1,0.2l-2.1,3.2
			C616.3,766.8,615.8,767,615.3,767z M618.7,751.3l0,3.5c0,0.1,0,0.1,0,0.2l-0.3,1.9l0.9-1.8l1.4-3.2l1.1-3.4l1-3.4l1.2-3.4l0.8-3.4
			l1-3.5l0.5-3.5l0.4-3.5l0.5-3.6l0.7-7.1l-0.2-7.2l-0.3-3.5l-0.1-3.6l-0.5-3.4l-0.8-3.5l-0.6-3.6l-1-3.4l-0.9-3.4l-1.6-3.1
			c0-0.1-0.1-0.1-0.1-0.2l-1.2-3.3l-1.8-3l-1.7-3.1l-2.2-2.7l-2.4-2.5l-2.3-2.6l-2.8-1.8l-3.1-1.7l-3.1-1.5l-3.2-1l-3.5-0.2
			c-0.1,0-0.1,0-0.2,0l-3.4-0.6l-6.9,0.5l-3.5,0.7l-2.6,0.6l2.5,0.9c0.1,0,0.2,0.1,0.3,0.1l3.1,1.9c0,0,0.1,0,0.1,0.1l2.9,2.1
			c0.1,0,0.1,0.1,0.2,0.1l2.6,2.5l2.5,2.5c0,0,0,0.1,0.1,0.1l4.7,5.4c0.1,0.1,0.1,0.1,0.2,0.2l1.8,3.1l1.9,2.9l2.1,2.9
			c0,0.1,0.1,0.1,0.1,0.2l1.7,3.2c0,0,0,0.1,0,0.1l1.4,3.3l1.5,3.2l1.5,3.3c0,0,0,0.1,0.1,0.1l2.3,6.8l2,6.9l1.3,3.3
			c0,0.1,0.1,0.2,0.1,0.2l1.4,7l0.9,3.4c0,0.1,0,0.2,0,0.2l0.3,3.5l0.7,3.4c0,0.1,0,0.1,0,0.2l0.3,3.6l0.1,3.6l0.4,3.5l0.2,3.7
			c0,0.1,0,0.2,0,0.2L618.7,751.3z"/>
	</g>
	<g>
		<path class="st0" d="M566.5,743.9c-0.4,0-0.7-0.1-1-0.4c-0.5-0.5-0.6-1.2-0.3-1.8l1.7-3.2l1.3-3.2l2.3-6.7l1.3-3.3l0.8-3.4
			c0,0,0-0.1,0-0.1l1.1-3.3l0.7-3.4c0,0,0-0.1,0-0.1l1-3.3l1.4-6.9l0.5-3.4l0.7-7l-0.1-3.5l0.1-7.1l-0.2-3.4l-0.6-3.4l-0.5-3.4
			l-1.1-3.3c0,0,0-0.1,0-0.1l-0.8-3.4l-1.3-3.1l-1.5-3c-0.3-0.6-0.2-1.3,0.3-1.8c0.5-0.5,1.2-0.5,1.8-0.2l6.1,3.5
			c0,0,0.1,0.1,0.1,0.1l2.9,2.1l2.9,2.3c0,0,0.1,0.1,0.1,0.1l2.5,2.6l2.5,2.7c0,0.1,0.1,0.1,0.1,0.2l2,3c0,0,0.1,0.1,0.1,0.1
			l1.7,3.1c0,0.1,0.1,0.2,0.1,0.2l1.2,3.4l1.2,3.3c0,0.1,0.1,0.2,0.1,0.2l0.7,3.5c0,0.1,0,0.1,0,0.2l0.2,3.6c0,0,0,0.1,0,0.1
			l-0.1,3.6l-0.3,3.7c0,0.1,0,0.1,0,0.2l-0.8,3.5l-0.7,3.5c0,0.1,0,0.1,0,0.2l-1.1,3.4c0,0.1-0.1,0.2-0.1,0.2l-1.6,3.2l-1.5,3.2
			l-1.7,3.2c0,0.1-0.1,0.1-0.1,0.2l-2.1,2.9l-1.9,3c0,0,0,0.1-0.1,0.1l-2.2,2.9c0,0.1-0.1,0.1-0.1,0.2l-2.6,2.5l-2.4,2.6
			c0,0-0.1,0.1-0.1,0.1l-2.8,2.3c0,0-0.1,0.1-0.1,0.1l-2.9,2l-2.9,2.1c0,0-0.1,0.1-0.1,0.1l-3.2,1.9
			C567,743.8,566.7,743.9,566.5,743.9z M575.5,722.7l-0.8,3.4c0,0.1,0,0.1-0.1,0.2l-1.4,3.3l-2.3,6.7l-0.8,2.1l1.6-1.2l2.9-2
			l2.6-2.2l2.4-2.6l2.6-2.5l2.1-2.7l1.9-3l2-2.9l1.6-3.1l1.5-3.2l1.6-3.1l1-3.2l0.7-3.4l0.8-3.4l0.3-3.5l0.1-3.4l-0.2-3.4l-0.6-3.3
			l-1.2-3.3l-1.1-3.3l-1.6-3l-1.9-2.8l-2.4-2.6l-2.4-2.5l-2.7-2.2l-2.8-2l-1.8-1.1l0.8,2.1c0,0.1,0.1,0.1,0.1,0.2l0.8,3.4l1.1,3.3
			c0,0.1,0,0.2,0.1,0.3l0.5,3.5l0.6,3.5c0,0.1,0,0.1,0,0.2l0.2,3.6c0,0,0,0.1,0,0.1l-0.1,7.1l0.1,3.5c0,0.1,0,0.1,0,0.2l-0.7,7.1
			c0,0,0,0.1,0,0.1l-0.6,3.5l-1.4,7.1c0,0.1,0,0.1,0,0.2l-1,3.3l-0.7,3.4c0,0.1,0,0.1,0,0.2L575.5,722.7z"/>
	</g>
	<g>
		<path class="st0" d="M532.9,702.5C532.9,702.5,532.9,702.5,532.9,702.5c-0.9-0.1-1.6-0.8-1.5-1.6l0.5-7.3c0,0,0-0.1,0-0.1l1.2-7.2
			c0-0.1,0-0.1,0-0.2l1-3.5l1.2-3.5l1.4-3.5c0,0,0-0.1,0.1-0.1l1.6-3.3c0-0.1,0.1-0.1,0.1-0.2l2-3.1c0,0,0-0.1,0.1-0.1l2.2-2.9
			c0,0,0.1-0.1,0.1-0.1l2.4-2.7c0,0,0.1-0.1,0.1-0.1l2.7-2.5c0.1-0.1,0.2-0.1,0.2-0.2l3.1-1.9c0,0,0.1,0,0.1-0.1l3.3-1.6
			c0.1,0,0.2-0.1,0.3-0.1l3.5-0.9c0.1,0,0.2,0,0.3,0l3.7-0.2c0.1,0,0.2,0,0.3,0l3.6,0.4c0.1,0,0.2,0,0.2,0l3.5,1
			c0.1,0,0.1,0,0.2,0.1l3.4,1.4c0.8,0.3,1.1,1.2,0.8,2c-0.3,0.8-1.2,1.1-2,0.8l-3.3-1.4l-3.3-0.9l-3.4-0.4l-3.4,0.2l-3.3,0.9
			L553,661l-2.9,1.8l-2.5,2.3l-2.4,2.6l-2.1,2.8l-1.9,2.9l-1.6,3.1l-1.3,3.3l-1.2,3.4l-1,3.4l-1.2,7.1l-0.5,7.2
			C534.4,701.9,533.7,702.5,532.9,702.5z"/>
	</g>
	<g>
		<path class="st0" d="M566.6,658.8c-0.4,0-0.8-0.2-1.1-0.5c-0.4-0.5-0.5-1.2-0.2-1.8l1.8-3l1.4-3.1l1.2-3.2l0.8-3.3l0.5-3.3
			l-0.1-3.3l-0.4-3.4l-0.7-3.3l-1.1-3.2c-0.2-0.5-0.1-1.1,0.3-1.5c0.4-0.4,1-0.6,1.5-0.4l3.4,1.1c0.1,0,0.2,0.1,0.3,0.1l3.2,1.7
			c0.1,0.1,0.2,0.1,0.3,0.2l2.6,2.5c0.1,0.1,0.2,0.2,0.3,0.4l1.7,3.1c0.1,0.1,0.1,0.3,0.2,0.5l0.6,3.5c0,0.1,0,0.3,0,0.4l-0.3,3.6
			c0,0.1,0,0.2-0.1,0.3l-1.1,3.4c0,0.1-0.1,0.2-0.2,0.3l-1.9,3c0,0.1-0.1,0.1-0.1,0.2l-2.4,2.7c-0.1,0.1-0.1,0.1-0.2,0.2l-2.8,2.2
			c0,0-0.1,0.1-0.1,0.1l-3,1.9c-0.1,0-0.1,0.1-0.2,0.1l-3.3,1.5C567,658.8,566.8,658.8,566.6,658.8z M572.3,629.5l0.2,0.5
			c0,0.1,0,0.1,0,0.2l0.8,3.4c0,0,0,0.1,0,0.1l0.5,3.5c0,0,0,0.1,0,0.1l0.2,3.5c0,0.1,0,0.2,0,0.3l-0.5,3.5c0,0,0,0.1,0,0.1
			l-0.8,3.4c0,0.1,0,0.1-0.1,0.2l-1.2,3.3c0,0,0,0.1,0,0.1l-1,2.1l1.8-1.1l2.7-2.1l2.2-2.5l1.8-2.8l1-3.1l0.3-3.2l-0.6-3.1l-1.5-2.7
			l-2.3-2.2l-2.9-1.5L572.3,629.5z"/>
	</g>
	<g>
		<path class="st0" d="M565.2,703.5c-0.5,0-1-0.3-1.3-0.8l-1.8-3.1c0-0.1-0.1-0.1-0.1-0.2l-1.4-3.3l-1.2-3.5c0,0,0-0.1,0-0.1
			l-0.9-3.5c0,0,0-0.1,0-0.1l-0.6-3.5c0,0,0-0.1,0-0.1l-0.3-3.6c0,0,0-0.1,0-0.1l0.1-3.6c0-0.1,0-0.1,0-0.2l0.6-3.6l0.8-3.6
			c0-0.1,0-0.2,0.1-0.2l1.3-3.3l0.9-3.2l0.1-3.1l-1.1-3.1c-0.2-0.6,0-1.3,0.5-1.7c0.5-0.4,1.3-0.4,1.8,0l2.9,2.2
			c0.1,0,0.1,0.1,0.2,0.1l2.5,2.6c0,0,0.1,0.1,0.1,0.2l2.2,2.9c0.1,0.1,0.1,0.2,0.1,0.2l1.6,3.3c0,0.1,0.1,0.2,0.1,0.3l0.9,3.5
			c0,0.1,0,0.2,0,0.2l0.3,3.6c0,0.1,0,0.2,0,0.3l-0.4,3.5c0,0.1,0,0.2-0.1,0.3l-1.1,3.3l-1.3,3.3l-1.4,3.2L568,692l-0.9,3.2
			l-0.3,3.3l-0.1,3.4c0,0.7-0.5,1.2-1.1,1.4C565.4,703.4,565.3,703.5,565.2,703.5z M562.3,691.7l1.2,3.3l0.5,1.3l0.2-1.5
			c0-0.1,0-0.2,0-0.3l1-3.4l1.1-3.4c0,0,0-0.1,0.1-0.1l1.4-3.2l1.2-3.2l1-3.1l0.4-3.2l-0.3-3.3l-0.8-3.2l-1.4-3l-2-2.7l-1.5-1.6
			l-0.1,2.9c0,0.1,0,0.2-0.1,0.4l-1,3.5c0,0,0,0.1,0,0.1l-1.3,3.3l-0.7,3.4l-0.5,3.4l-0.1,3.4l0.3,3.4l0.6,3.4L562.3,691.7z"/>
	</g>
	<g>
		<path class="st0" d="M492.4,439.6c-0.3,0-0.6-0.1-0.9-0.3l-2.8-2c0,0-0.1-0.1-0.1-0.1l-2.6-2.3c0,0-0.1-0.1-0.1-0.1l-2.5-2.5
			c-0.1-0.1-0.1-0.1-0.2-0.2l-1.9-2.9c0-0.1-0.1-0.1-0.1-0.2l-1.6-3.1c-0.1-0.1-0.1-0.2-0.1-0.4l-0.7-3.4c0-0.1,0-0.2,0-0.3
			l-0.1-3.5c0-0.1,0-0.3,0.1-0.4l0.9-3.4c0-0.1,0.1-0.2,0.1-0.3l1.6-3.1c0.1-0.1,0.1-0.2,0.2-0.3l2.4-2.6c0.1-0.1,0.1-0.1,0.2-0.2
			l2.8-2.1c0.1-0.1,0.2-0.1,0.3-0.2l3.2-1.4c0.1,0,0.2-0.1,0.3-0.1l3.4-0.6c0.1,0,0.2,0,0.3,0l3.5,0c0.1,0,0.2,0,0.3,0l3.4,0.6
			c0.1,0,0.2,0.1,0.3,0.1l3.2,1.3c0.6,0.2,0.9,0.8,0.9,1.4c0,0.6-0.4,1.2-1,1.4l-3,1l-2.3,2.1l-1.9,2.7l-1.6,3l-1.2,3.3l-1,3.3
			l-0.6,3.4l-0.3,3.4l0.1,3.4l0.6,3.4c0.1,0.6-0.2,1.2-0.7,1.5C492.9,439.5,492.7,439.6,492.4,439.6z M487.9,432.7l2.3,2
			c0,0,0,0,0-0.1l-0.1-3.6c0-0.1,0-0.1,0-0.2l0.4-3.6c0,0,0-0.1,0-0.1l0.6-3.6c0-0.1,0-0.1,0-0.2l1-3.5l1.3-3.5c0-0.1,0-0.1,0.1-0.2
			l1.7-3.2c0-0.1,0.1-0.1,0.1-0.2l2.1-3c0.1-0.1,0.1-0.2,0.2-0.2l2.6-2.5c0,0,0,0,0.1-0.1l-2.4-0.5l-3.2,0l-3.1,0.6l-2.9,1.3
			l-2.6,1.9l-2.2,2.3l-1.5,2.8l-0.8,3l0.1,3.1l0.7,3.1l1.4,2.9l1.8,2.7L487.9,432.7z"/>
	</g>
	<g>
		<path class="st0" d="M504.7,408.8c-0.7,0-1.2-0.4-1.4-1.1l-1-3.3l-1.6-2.8l-2.2-2.2l-3-1.6l-3.2-1.5c0,0-0.1,0-0.1-0.1l-3.1-1.8
			c-0.1-0.1-0.3-0.2-0.4-0.3l-2.5-3c-0.1-0.1-0.2-0.2-0.2-0.4l-1.6-3.6c0-0.1-0.1-0.2-0.1-0.3l-0.7-3.9c0-0.1,0-0.1,0-0.2l-0.2-3.9
			c0,0,0-0.1,0-0.1l0.2-3.9c0-0.6,0.5-1.2,1.1-1.4c0.6-0.2,1.3,0,1.7,0.6l2.1,2.9l2.3,2.6l2.7,2.2l2.9,2.1l2.9,2.3
			c0,0,0.1,0.1,0.1,0.1l2.6,2.6c0.1,0.1,0.1,0.2,0.2,0.2l2,3c0.1,0.1,0.1,0.2,0.2,0.3l1.2,3.5c0,0.1,0.1,0.2,0.1,0.3l0.6,3.6
			c0,0,0,0.1,0,0.1l0.2,3.7c0,0,0,0.1,0,0.1l-0.1,3.7c0,0.7-0.6,1.3-1.3,1.4C504.8,408.7,504.8,408.8,504.7,408.8z M493.6,393.6
			l3.2,1.5l3.2,1.8c0.1,0.1,0.2,0.2,0.3,0.3l2.5,2.5c0.1,0.1,0.1,0.1,0.2,0.2l-0.5-3.2l-1.1-3.2l-1.8-2.8l-2.4-2.4l-2.8-2.2
			l-2.9-2.1c0,0-0.1,0-0.1-0.1l-2.8-2.3c-0.1-0.1-0.1-0.1-0.2-0.2l-2-2.3l0.2,3.3l0.6,3.6l1.4,3.2l2.2,2.7L493.6,393.6z"/>
	</g>
	<g>
		<path class="st0" d="M454.2,422.5c-0.3,0-0.6-0.1-0.8-0.2c-0.5-0.4-0.8-1-0.6-1.6l0.9-3.5c0-0.1,0-0.1,0.1-0.2l1.3-3.3l1.5-3.3
			c0-0.1,0.1-0.1,0.1-0.2l2-3l2.2-3c0.1-0.1,0.1-0.2,0.2-0.2l2.6-2.4l2.8-2.4c0,0,0.1-0.1,0.2-0.1l3-2c0.1,0,0.1-0.1,0.2-0.1
			l3.3-1.4c0,0,0.1,0,0.1,0l3.4-1.1c0.1,0,0.1,0,0.2,0l3.5-0.7c0.1,0,0.2,0,0.2,0l3.6-0.2c0.1,0,0.1,0,0.2,0l3.6,0.4
			c0.1,0,0.1,0,0.2,0l3.5,0.7c0.1,0,0.1,0,0.2,0.1l3.4,1.3c0.1,0,0.2,0.1,0.3,0.1l3.1,1.9c0.1,0,0.1,0.1,0.2,0.1l2.7,2.4
			c0.1,0,0.1,0.1,0.2,0.2l2.3,2.7c0,0,0.1,0.1,0.1,0.1l2,3c0.4,0.5,0.3,1.3-0.1,1.8c-0.4,0.5-1.1,0.7-1.7,0.5l-3.3-1.3l-3.4-0.8
			l-3.6-0.4l-3.5-0.2l-3.5,0.3l-3.5,0.6l-6.9,2.1l-3.3,1.3l-3.2,1.7l-6.2,3.7L458,420l-2.9,2.2C454.8,422.4,454.5,422.5,454.2,422.5
			z M459.2,411.7l-1.4,3.2l-0.9,2.2l5.2-3.9c0,0,0.1-0.1,0.1-0.1l6.3-3.8l3.3-1.8c0,0,0.1,0,0.1-0.1l3.4-1.4c0,0,0.1,0,0.1,0
			l7.1-2.2c0.1,0,0.1,0,0.2,0l3.6-0.6c0,0,0.1,0,0.1,0l3.7-0.3c0.1,0,0.1,0,0.2,0l3.7,0.2l3.8,0.4c0.1,0,0.1,0,0.2,0l2.6,0.6
			l-1.4-1.6l-2.5-2.2l-2.8-1.8l-3.1-1.2l-3.3-0.7l-3.4-0.3l-3.4,0.2l-3.3,0.7l-3.3,1.1l-3.1,1.4l-2.8,1.8l-2.7,2.3l-2.5,2.3l-2,2.8
			L459.2,411.7z"/>
	</g>
	<g>
		<path class="st0" d="M550.8,339.2c-0.1,0-0.2,0-0.3,0l-3.5-0.6c-0.1,0-0.2,0-0.3-0.1l-3.3-1.3c-0.1,0-0.2-0.1-0.2-0.1l-3-1.9
			c-0.1-0.1-0.2-0.1-0.3-0.2l-2.5-2.5c0,0-0.1-0.1-0.1-0.2l-2.1-2.8c-0.1-0.1-0.1-0.2-0.2-0.3l-1.5-3.2c0-0.1,0-0.1-0.1-0.2
			l-1.1-3.4c0-0.1,0-0.1,0-0.2l-0.6-3.5c0-0.1,0-0.1,0-0.2l-0.2-3.5c0,0,0-0.1,0-0.1l0.1-3.6c0-0.6,0.4-1.2,1-1.4
			c0.6-0.2,1.2,0,1.6,0.5l2.2,2.7l2.5,2.5l2.5,2.3l2.7,2.1l3,1.8l3,1.8l3.1,1.5l3.3,1.3l3.3,1.2l3.3,1l3.4,0.8
			c0.5,0.1,1,0.5,1.1,1.1s0,1.1-0.4,1.5l-2.5,2.4c-0.1,0.1-0.1,0.1-0.2,0.1l-2.9,2c-0.1,0-0.1,0.1-0.2,0.1l-3.2,1.5
			c-0.1,0-0.2,0.1-0.3,0.1l-3.4,0.7c-0.1,0-0.2,0-0.3,0L550.8,339.2C550.8,339.2,550.8,339.2,550.8,339.2z M547.8,335.6l3.2,0.6
			l3.2-0.1l3.1-0.7l2.9-1.4l2.7-1.9l0.4-0.4l-0.7-0.2l-3.5-1l-3.5-1.2l-3.4-1.3c0,0-0.1,0-0.1-0.1l-3.2-1.6c0,0-0.1,0-0.1,0
			l-3.1-1.8l-3.1-1.9c0,0-0.1-0.1-0.1-0.1l-2.9-2.1c0,0-0.1-0.1-0.1-0.1l-2.6-2.4l-2.3-2.4l0.2,2.8l0.6,3.3l1,3.2l1.4,3l2,2.6
			l2.3,2.3l2.7,1.7L547.8,335.6z"/>
	</g>
	<g>
		<path class="st0" d="M514.4,339.3C514.4,339.3,514.4,339.3,514.4,339.3l-3.6-0.1c-0.1,0-0.2,0-0.3,0l-3.4-0.8
			c-0.1,0-0.2,0-0.2-0.1l-3.2-1.4c-0.1,0-0.2-0.1-0.3-0.1l-2.9-2c-0.1,0-0.1-0.1-0.2-0.2l-2.6-2.5c-0.4-0.4-0.6-0.9-0.4-1.5
			c0.1-0.5,0.6-0.9,1.1-1.1l3.5-0.8l3.4-0.9l3.3-1.2l3.2-1.3l3.1-1.6l3-1.7l2.9-1.9l2.8-2.1l2.6-2.2l2.3-2.5l2.2-2.7
			c0.4-0.5,1-0.7,1.6-0.5c0.6,0.2,1,0.7,1,1.3l0.2,3.6c0,0.1,0,0.1,0,0.2l-0.3,3.5c0,0,0,0.1,0,0.1l-0.6,3.5c0,0.1,0,0.2-0.1,0.2
			l-1.1,3.3c0,0.1,0,0.1-0.1,0.2l-1.5,3.2c0,0.1-0.1,0.1-0.1,0.2l-2,2.9c-0.1,0.1-0.1,0.2-0.2,0.2l-2.6,2.4
			c-0.1,0.1-0.1,0.1-0.2,0.1l-2.9,2c-0.1,0.1-0.2,0.1-0.3,0.1l-3.3,1.3c-0.1,0-0.2,0.1-0.3,0.1l-3.5,0.6
			C514.6,339.3,514.5,339.3,514.4,339.3z M511.1,336.2l3.2,0.1l3.2-0.5l3-1.2l2.7-1.8l2.4-2.2l1.9-2.7l1.4-3l1.1-3.1l0.5-3.3
			l0.2-2.9l-2.3,2.4c0,0-0.1,0.1-0.1,0.1l-2.7,2.3l-2.9,2.2c0,0-0.1,0-0.1,0.1l-3,1.9l-3.2,1.8l-3.3,1.6c0,0-0.1,0-0.1,0.1l-3.3,1.3
			l-3.4,1.3c0,0-0.1,0-0.1,0l-4.3,1.1l0.5,0.5l2.7,1.9l3,1.3L511.1,336.2z"/>
	</g>
	<g>
		<path class="st0" d="M500.3,302.4c-0.1,0-0.2,0-0.2,0l-3.5-0.5c0,0-0.1,0-0.1,0l-3.4-0.8c-0.1,0-0.1,0-0.2-0.1l-3.3-1.3
			c0,0-0.1,0-0.1-0.1l-3.2-1.6c0,0-0.1,0-0.1-0.1l-3-1.8c0,0-0.1,0-0.1-0.1L480,294c-0.1,0-0.1-0.1-0.2-0.1l-2.6-2.5
			c-0.4-0.4-0.6-1-0.4-1.6s0.7-0.9,1.3-1l3.7-0.4l3.5-0.6l6.9-1.6l3.5-0.7l10.1-3.3l6.6-2.7l3.2-1.6l3.1-1.7l3-1.9
			c0.3-0.2,0.6-0.3,1-0.2l1.6,0.2l2.9-0.6l2.3-1.7l1.3-2.9c0.3-0.7,1-1,1.7-0.8c0.7,0.2,1.2,0.9,1.1,1.6l-0.3,3.5c0,0,0,0.1,0,0.1
			l-0.5,3.5c0,0.1,0,0.1,0,0.2l-0.9,3.4c0,0.1,0,0.1-0.1,0.2l-1.4,3.3c0,0,0,0.1,0,0.1l-1.6,3.2c0,0.1-0.1,0.1-0.1,0.2l-2,2.9
			c0,0.1-0.1,0.1-0.1,0.2l-2.4,2.6c0,0-0.1,0.1-0.1,0.1l-2.7,2.3c0,0-0.1,0.1-0.1,0.1l-2.9,2.1c-0.1,0-0.1,0.1-0.2,0.1l-3.2,1.6
			c0,0-0.1,0-0.1,0.1l-3.3,1.3c0,0-0.1,0-0.2,0.1l-3.4,1c-0.1,0-0.1,0-0.2,0l-3.5,0.5c-0.1,0-0.1,0-0.2,0L500.3,302.4
			C500.3,302.4,500.3,302.4,500.3,302.4z M497.1,298.9l3.3,0.5l3.3,0l3.3-0.5l3.2-0.9l3.2-1.3l3-1.5l2.7-2l2.5-2.2l2.3-2.5l1.9-2.7
			l1.5-3l1.3-3.1l0.9-3.2l0.2-1.1l-1.3,1c-0.2,0.1-0.4,0.2-0.6,0.3l-3.5,0.7c-0.2,0-0.3,0-0.5,0l-1.4-0.1l-2.6,1.7
			c0,0-0.1,0-0.1,0.1l-3.2,1.7l-3.3,1.6c0,0-0.1,0-0.1,0l-6.7,2.7c0,0-0.1,0-0.1,0l-10.3,3.3c-0.1,0-0.1,0-0.2,0l-3.5,0.7l-7,1.6
			l-4.2,0.6l0.3,0.2l2.7,2l2.9,1.8l3.1,1.5l3.2,1.2L497.1,298.9z"/>
	</g>
	<g>
		<path class="st0" d="M564.1,302.2C564.1,302.2,564.1,302.2,564.1,302.2l-3.7-0.1c0,0-0.1,0-0.2,0l-3.6-0.5c-0.1,0-0.1,0-0.2,0
			l-3.5-1c-0.1,0-0.1,0-0.2-0.1l-3.4-1.4c-0.1,0-0.1-0.1-0.2-0.1l-3.1-1.9c0,0-0.1-0.1-0.1-0.1l-2.9-2.2c-0.1,0-0.1-0.1-0.2-0.2
			l-2.5-2.7c0,0-0.1-0.1-0.1-0.1l-2.3-2.8c0,0-0.1-0.1-0.1-0.1l-2-3.1c0,0-0.1-0.1-0.1-0.1l-1.6-3.3c0-0.1-0.1-0.1-0.1-0.2l-1.2-3.5
			c0-0.1,0-0.1-0.1-0.2l-0.7-3.6c0,0,0-0.1,0-0.1l-0.4-3.7c0-0.1,0-0.1,0-0.2l0.1-3.8c0-0.6,0.4-1.2,1-1.4c0.6-0.2,1.2-0.1,1.6,0.4
			l2.4,2.6l2.5,2.2l2.8,2l2.8,1.9l2.9,1.8l3.1,1.6l3.1,1.5l6.4,2.6l3.2,1.1l3.3,1l6.7,1.8l6.7,1.5l6.8,1c0.6,0.1,1.1,0.5,1.2,1
			s0,1.2-0.4,1.6l-2.7,2.4l-2.9,2.4c-0.1,0.1-0.1,0.1-0.2,0.2l-3.2,1.8l-3.4,1.6c0,0-0.1,0-0.1,0.1l-3.4,1.3c-0.1,0-0.1,0-0.2,0.1
			l-3.6,0.8c-0.1,0-0.1,0-0.2,0L564.1,302.2C564.2,302.2,564.1,302.2,564.1,302.2z M560.6,299.1l3.5,0.1l3.5-0.2l3.4-0.7l3.3-1.2
			l3.2-1.6l3-1.7l3-2.5l-3.7-0.5c0,0-0.1,0-0.1,0l-6.8-1.5l-6.8-1.8l-3.4-1l-3.4-1.2l-6.5-2.7l-3.2-1.5l-3.2-1.6c0,0-0.1,0-0.1-0.1
			l-3-1.8l-2.9-2l-2.9-2.1c0,0-0.1-0.1-0.1-0.1l-2.6-2.3c0,0,0,0,0,0l0.4,3.4l0.7,3.4l1.1,3.3l1.6,3.1l1.9,2.9l2.2,2.7l2.4,2.5
			l2.7,2.1l3,1.8l3.2,1.4l3.3,0.9L560.6,299.1z"/>
	</g>
	<g>
		<path class="st0" d="M504.4,323C504.4,323,504.3,323,504.4,323l-3.6-0.2c-0.1,0-0.1,0-0.2,0l-3.5-0.6c-0.1,0-0.1,0-0.2,0l-3.4-1.1
			c-0.1,0-0.1,0-0.1-0.1l-3.3-1.4c-0.1,0-0.1,0-0.2-0.1l-3.1-1.8c-0.1,0-0.1-0.1-0.2-0.1l-2.7-2.2c-0.4-0.4-0.6-0.9-0.5-1.5
			c0.1-0.6,0.6-1,1.1-1.1l3.4-0.8l3.3-1l10.1-3.4l3.2-1.3l3.2-1.4l3.1-1.6l3-1.8l2.9-1.9l2.9-2l2.7-2.1l2.5-2.3l2.2-2.6l1.9-2.8
			l1.6-3.1c0.3-0.6,0.9-0.9,1.6-0.8c0.6,0.1,1.1,0.6,1.2,1.3l0.5,3.5l0.3,3.6c0,0,0,0.1,0,0.1l0,3.6c0,0.1,0,0.1,0,0.2l-0.4,3.5
			c0,0,0,0.1,0,0.1l-0.6,3.5c0,0.1,0,0.2-0.1,0.2l-1.2,3.4c0,0.1-0.1,0.1-0.1,0.2l-1.7,3.1c0,0.1-0.1,0.1-0.1,0.2l-2.1,2.9
			c0,0.1-0.1,0.1-0.1,0.1l-2.5,2.6c0,0.1-0.1,0.1-0.2,0.1l-2.8,2.2c-0.1,0.1-0.1,0.1-0.2,0.1l-3.2,1.7c-0.1,0-0.1,0.1-0.2,0.1
			l-3.3,1.3c0,0-0.1,0-0.1,0l-3.4,0.9c-0.1,0-0.1,0-0.2,0l-3.5,0.5c-0.1,0-0.1,0-0.2,0L504.4,323C504.4,323,504.4,323,504.4,323z
			 M501,319.8l3.4,0.2l3.4-0.1l3.3-0.5l3.3-0.9l3.2-1.2l3-1.6l2.6-2.1l2.3-2.4l2-2.7l1.6-3l1.1-3.1l0.6-3.3l0.4-3.4l0-3.4l-0.2-2.4
			l-1.5,2.2c0,0-0.1,0.1-0.1,0.1l-2.3,2.8c0,0-0.1,0.1-0.1,0.1l-2.6,2.5c0,0-0.1,0.1-0.1,0.1l-2.8,2.2l-3,2.1l-3,2l-3.2,1.8
			l-3.3,1.7l-3.3,1.5l-3.3,1.4l-10.3,3.4l-4,1.2l0.2,0.2l2.9,1.7l3.1,1.4l3.2,1L501,319.8z"/>
	</g>
	<g>
		<path class="st0" d="M557.2,323c-0.1,0-0.2,0-0.2,0l-3.5-0.6c0,0-0.1,0-0.1,0l-3.4-0.9c-0.1,0-0.1,0-0.2-0.1l-3.3-1.3
			c-0.1,0-0.1-0.1-0.2-0.1l-3.1-1.7c-0.1,0-0.2-0.1-0.2-0.2l-2.7-2.3c0,0-0.1,0-0.1-0.1l-2.6-2.5c-0.1-0.1-0.1-0.1-0.2-0.2l-2.1-2.9
			c-0.1-0.1-0.1-0.1-0.1-0.2l-1.6-3.2c0-0.1,0-0.1-0.1-0.2l-1.2-3.4c0-0.1,0-0.1-0.1-0.2l-0.8-3.5c0-0.1,0-0.1,0-0.2l-0.3-3.5
			l-0.1-3.6c0-0.1,0-0.1,0-0.2l0.4-3.6l0.6-3.5c0.1-0.6,0.6-1.1,1.2-1.2c0.6-0.1,1.3,0.2,1.6,0.8l1.6,3l1.9,2.8l2.2,2.6l2.6,2.4
			l2.6,2.2l2.9,2l3,1.8l3,1.8l3,1.6l3.2,1.4l6.6,2.6l3.3,1.2l3.3,1l6.9,1.7c0.5,0.1,1,0.6,1.1,1.1c0.1,0.5-0.1,1.1-0.5,1.5l-2.8,2.3
			c-0.1,0-0.1,0.1-0.2,0.1l-3.1,1.9c-0.1,0-0.1,0.1-0.2,0.1l-3.3,1.4c0,0-0.1,0-0.1,0l-3.4,1.1c-0.1,0-0.2,0-0.3,0.1l-3.5,0.5
			l-3.6,0.3c0,0-0.1,0-0.1,0L557.2,323C557.3,323,557.3,323,557.2,323z M554,319.5l3.3,0.5l3.4,0l3.5-0.3l3.3-0.4l3.2-1.1l3.1-1.3
			l2.9-1.7l0.4-0.4l-4.1-1c0,0-0.1,0-0.1,0l-3.4-1.1l-3.4-1.2l-6.7-2.6l-3.3-1.4c0,0-0.1,0-0.1-0.1l-3.2-1.7l-3.1-1.8l-3.1-1.9
			l-3-2.1c0,0-0.1-0.1-0.1-0.1l-2.7-2.3l-2.7-2.5c0,0-0.1-0.1-0.1-0.1l-2.3-2.7c0,0-0.1-0.1-0.1-0.2l-1.5-2.3l-0.2,2.5l0.1,3.5
			l0.3,3.4l0.7,3.3l1.1,3.2l1.5,3l2,2.7l2.4,2.3l2.6,2.2l2.9,1.6l3.1,1.3L554,319.5z"/>
	</g>
	<g>
		<path class="st0" d="M505.2,270.1c-0.1,0-0.2,0-0.3,0l-3.7-0.7c-0.1,0-0.1,0-0.2-0.1l-3.5-1.2c-0.1,0-0.1,0-0.2-0.1l-3.4-1.6
			c0,0-0.1,0-0.1-0.1l-3.2-1.9c-0.1,0-0.1-0.1-0.2-0.1l-2.9-2.4l-2.9-2.5c-0.5-0.4-0.6-1-0.4-1.6s0.7-1,1.3-1l3.4-0.2l3.4-0.5
			l3.3-0.7l3.3-0.9l3.4-0.8l3.2-1.1l3.1-1.3l3.1-1.4l2.9-1.6l2.8-1.9l2.7-2l2.5-2.1l2.3-2.5l2.2-2.5l1.8-2.8l1.5-3.1
			c0.3-0.6,0.9-0.9,1.6-0.8c0.6,0.1,1.2,0.6,1.3,1.2l0.5,2.8c0,0,0,0.1,0,0.1l0.2,2.8l0.1,4.3c0,0.3-0.1,0.5-0.2,0.7l-0.2,3.2
			c-0.1,0.8-0.7,1.4-1.5,1.4l-1,0l-3.4,0.8l-2.4,2.3l-0.8,3.3l0.6,2.8l2,2.6c0.4,0.5,0.4,1.3,0,1.8l-0.2,0.3
			c-0.3,0.4-0.8,0.6-1.3,0.6l-1.4-0.1l-3.2,0.8l-2.3,2.1l-1.2,3.3c-0.2,0.4-0.5,0.8-0.9,0.9l-3.5,1.2c-0.1,0-0.2,0.1-0.3,0.1
			l-3.7,0.4c0,0-0.1,0-0.1,0L505.2,270.1C505.2,270.1,505.2,270.1,505.2,270.1z M501.9,266.5l3.4,0.7l3.5,0l3.5-0.3l2.7-0.9l1.1-3
			c0.1-0.2,0.2-0.4,0.4-0.6l2.9-2.6c0.2-0.2,0.4-0.3,0.6-0.3l3.1-0.7l-0.6-0.8c-0.1-0.2-0.2-0.4-0.3-0.6l-0.8-3.5
			c-0.1-0.2,0-0.5,0-0.7l1-4c0.1-0.3,0.2-0.5,0.4-0.7l2.9-2.9c0.2-0.2,0.4-0.3,0.7-0.4l4-1c0.1,0,0.1,0,0.2,0l0.2-2.3
			c0-0.2,0.1-0.4,0.1-0.5l-0.1-4.2l-1.3,2c0,0.1-0.1,0.1-0.1,0.2l-2.3,2.7l-2.4,2.6c0,0-0.1,0.1-0.1,0.1l-2.7,2.3l-2.9,2.1l-2.9,2
			c0,0-0.1,0.1-0.1,0.1l-3.1,1.7c0,0-0.1,0-0.1,0.1l-3.2,1.4l-3.3,1.4l-3.4,1.2c0,0-0.1,0-0.2,0l-3.4,0.8l-3.3,0.9l-3.5,0.7
			l-3.5,0.5l0.1,0.1l2.8,2.3l3.1,1.8l3.2,1.6L501.9,266.5z"/>
	</g>
	<g>
		<path class="st0" d="M557,270.2c0,0-0.1,0-0.1,0l-3.6-0.3c-0.1,0-0.2,0-0.3,0l-3.6-0.9c-0.7-0.2-1.2-0.9-1.1-1.7l0.4-2.4l-0.8-3.3
			l-2.4-2.3l-3.2-0.9l-4,1.2c-0.7,0.2-1.4-0.1-1.7-0.7l-0.1-0.2c-0.2-0.3-0.2-0.8-0.1-1.1l1.1-4.1l-0.5-2.7l-1.7-2.3l-2.8-1.4
			c-0.4-0.2-0.7-0.7-0.8-1.1l-0.5-3.8c0-0.2,0-0.4,0.1-0.6l0-3.8l0.2-2.8c0,0,0-0.1,0-0.1l0.4-2.7c0.1-0.6,0.6-1.1,1.2-1.3
			c0.6-0.1,1.3,0.2,1.6,0.8l1.6,3l1.8,2.8l2.2,2.6l2.3,2.5l2.5,2.3l2.8,2l2.9,1.8l2.9,1.7l3.1,1.4l3.2,1.3l3.2,1.2l3.3,0.9l3.3,0.8
			l6.8,1.1l3.3,0.2c0.6,0,1.1,0.4,1.3,1s0.1,1.2-0.4,1.6l-2.6,2.5c0,0-0.1,0.1-0.1,0.1l-2.9,2.2l-3.1,2.1c-0.1,0-0.1,0.1-0.2,0.1
			l-3.3,1.5c0,0-0.1,0-0.1,0.1l-3.5,1.2c0,0-0.1,0-0.1,0L561,270c-0.1,0-0.2,0-0.3,0L557,270.2C557,270.2,557,270.2,557,270.2z
			 M553.6,266.9l3.4,0.3l3.4-0.1l3.3-0.8l3.3-1.1l3.2-1.4l2.9-2l2.9-2.2l-0.1,0c0,0-0.1,0-0.1,0l-6.9-1.1c0,0-0.1,0-0.1,0l-3.4-0.9
			l-3.4-0.9c0,0-0.1,0-0.1,0l-3.3-1.2l-3.3-1.3l-3.2-1.4c-0.1,0-0.1-0.1-0.2-0.1l-3-1.8l-3-1.9l-2.9-2.1c-0.1,0-0.1-0.1-0.1-0.1
			l-2.6-2.4c0,0-0.1-0.1-0.1-0.1l-2.3-2.6l-2.3-2.7c0-0.1-0.1-0.1-0.1-0.2l-1.3-2l0,0.7l0,4.1c0,0.1,0,0.2,0,0.3l0.3,2.6l2.4,1.2
			c0.2,0.1,0.4,0.2,0.5,0.4l2.1,2.8c0.1,0.2,0.2,0.4,0.3,0.6l0.7,3.4c0,0.2,0,0.5,0,0.7l-0.6,2.1l2.1-0.6c0.3-0.1,0.6-0.1,0.8,0
			l4,1.1c0.2,0.1,0.4,0.2,0.6,0.3l3,2.8c0.2,0.2,0.4,0.5,0.4,0.8l0.9,4c0,0.2,0,0.4,0,0.6l-0.2,1.4L553.6,266.9z"/>
	</g>
	<g>
		<path class="st0" d="M513.6,242.4C513.6,242.4,513.6,242.4,513.6,242.4l-3.7-0.1c-0.1,0-0.2,0-0.3,0l-3.5-0.8
			c-0.1,0-0.1,0-0.2-0.1l-3.4-1.2c-0.1,0-0.2-0.1-0.2-0.1l-3.2-1.8c0,0-0.1,0-0.1-0.1l-3-2c-0.1,0-0.1-0.1-0.2-0.2l-2.6-2.5
			c-0.4-0.4-0.6-1-0.4-1.6c0.2-0.6,0.7-0.9,1.3-1l3.4-0.2l6.8-0.9l3.4-0.7l3.3-0.8l3.3-1l3.2-1.2l3-1.4l3-1.7l2.9-1.8l2.7-1.9
			l2.5-2.3c0.5-0.4,1.1-0.5,1.7-0.3c0.6,0.3,0.9,0.8,0.9,1.5l-0.2,3.6c0,0.1,0,0.1,0,0.2l-0.7,3.6c0,0.1,0,0.1-0.1,0.2l-1.2,3.4
			c0,0.1,0,0.1-0.1,0.2l-1.6,3.3c0,0.1-0.1,0.2-0.2,0.2l-2.2,2.9c-0.1,0.1-0.1,0.1-0.2,0.2l-2.8,2.4c-0.1,0-0.1,0.1-0.2,0.1l-3.1,2
			c-0.1,0.1-0.2,0.1-0.3,0.1l-3.4,1.2c-0.1,0-0.2,0.1-0.3,0.1l-3.6,0.5C513.7,242.4,513.6,242.4,513.6,242.4z M510.1,239.4l3.4,0.1
			l3.3-0.5l3.1-1.1l2.8-1.8l2.6-2.2l2.1-2.6l1.5-3l1.1-3.2l0.6-3.1l-2.7,1.9c0,0-0.1,0-0.1,0.1l-3,1.8l-3.1,1.8c0,0-0.1,0-0.1,0.1
			l-3.2,1.5l-3.3,1.3l-3.4,1.1c0,0-0.1,0-0.1,0l-3.4,0.8l-3.5,0.7c0,0-0.1,0-0.1,0l-6.9,0.9c0,0-0.1,0-0.1,0l0,0l2.9,1.9l3,1.7
			l3.2,1.2L510.1,239.4z"/>
	</g>
	<g>
		<path class="st0" d="M551.6,242.4c-0.1,0-0.2,0-0.3,0l-3.6-0.6c-0.1,0-0.2,0-0.2-0.1l-3.4-1.2c-0.1,0-0.2-0.1-0.3-0.1l-3.1-1.9
			c-0.1,0-0.2-0.1-0.2-0.2l-2.7-2.4c-0.1-0.1-0.1-0.1-0.2-0.2l-2.3-2.9c0-0.1-0.1-0.1-0.1-0.2l-1.8-3.2c-0.1-0.1-0.1-0.2-0.1-0.3
			l-1.1-3.5c0-0.1,0-0.1,0-0.2l-0.7-3.6c0-0.1,0-0.1,0-0.2l-0.2-3.6c0-0.6,0.3-1.2,0.8-1.4c0.5-0.3,1.2-0.2,1.7,0.2l2.5,2.2l2.8,2
			l2.8,1.8l3,1.6l3,1.5l3.1,1.3l6.6,1.9l3.3,0.7l3.4,0.4l3.4,0.3l3.5,0.2c0.6,0,1.1,0.4,1.3,1c0.2,0.6,0.1,1.2-0.4,1.6l-2.7,2.5
			c0,0-0.1,0.1-0.2,0.1l-3,2.1c0,0-0.1,0.1-0.1,0.1l-3.2,1.8c-0.1,0-0.2,0.1-0.3,0.1l-3.5,1.2c0,0-0.1,0-0.1,0l-3.5,0.9
			c-0.1,0-0.2,0-0.4,0L551.6,242.4C551.6,242.4,551.6,242.4,551.6,242.4z M548.4,238.9l3.3,0.6l3.3,0l3.3-0.8l3.2-1.1l3-1.7l2.9-2.1
			l0,0l-3.5-0.3l-3.5-0.4c0,0-0.1,0-0.1,0l-3.4-0.7c0,0-0.1,0-0.1,0l-6.7-1.9c0,0-0.1,0-0.1,0l-3.2-1.3c0,0-0.1,0-0.1,0l-3.1-1.5
			l-3.1-1.7c0,0-0.1,0-0.1-0.1l-2.9-1.9l-2.8-2l0.6,3.3l1,3.2l1.7,2.9l2.1,2.7l2.5,2.2l2.9,1.7L548.4,238.9z"/>
	</g>
	<g>
		<path class="st0" d="M531,262.9c-0.1,0-0.2,0-0.3,0l-2.6-0.4c-0.2,0-0.3-0.1-0.5-0.2l-2.3-1.2c-0.1-0.1-0.3-0.2-0.4-0.3l-1.7-1.8
			c-0.1-0.1-0.2-0.2-0.3-0.4l-1.1-2.2c-0.1-0.1-0.1-0.3-0.1-0.4l-0.4-2.4c0-0.2,0-0.3,0-0.5l0.4-2.5c0-0.2,0.1-0.3,0.1-0.5l1.1-2.2
			c0.1-0.1,0.2-0.3,0.3-0.4l1.8-1.8c0.1-0.1,0.2-0.2,0.4-0.3l2.2-1.1c0.1-0.1,0.3-0.1,0.4-0.1l2.5-0.4c0.1,0,0.2,0,0.3,0l1.2,0.1
			c0.1,0,0.1,0,0.2,0l0.8,0.2c0.1,0,0.2,0.1,0.3,0.1l2.4,1.1c0.1,0.1,0.3,0.2,0.4,0.3l1.9,1.8c0.1,0.1,0.2,0.2,0.3,0.4l1.3,2.3
			c0.1,0.1,0.1,0.3,0.2,0.5l0.4,2.6c0,0.2,0,0.3,0,0.5l-0.3,2.3c0,0.1-0.1,0.3-0.1,0.4l-1,2.1c-0.1,0.1-0.1,0.2-0.2,0.3l-1.4,1.6
			c-0.1,0.1-0.2,0.2-0.3,0.3l-1.7,1.2c-0.1,0.1-0.2,0.1-0.4,0.2l-2,0.7c-0.1,0-0.2,0.1-0.3,0.1l-1.6,0.2
			C531.1,262.9,531.1,262.9,531,262.9z M528.9,259.5l2.1,0.4l1.2-0.1l1.6-0.6l1.4-1l1.1-1.3l0.8-1.7l0.3-1.8l-0.3-2.1l-1-1.9
			l-1.6-1.4l-2-0.9L532,247l-0.9-0.1l-2.1,0.3l-1.8,0.9l-1.4,1.4l-0.9,1.8l-0.3,2l0.3,1.9l0.9,1.8l1.3,1.4L528.9,259.5z"/>
	</g>
	<g>
		<path class="st0" d="M542.3,274.2c-0.1,0-0.2,0-0.2,0l-2.5-0.4c-0.2,0-0.3-0.1-0.4-0.1l-2.2-1.1c-0.1-0.1-0.3-0.2-0.4-0.3
			l-1.8-1.8c-0.1-0.1-0.2-0.2-0.3-0.4l-1.1-2.2c-0.1-0.1-0.1-0.3-0.1-0.4l-0.4-2.5c0-0.2,0-0.3,0-0.5l0.4-2.6c0-0.2,0.1-0.3,0.2-0.5
			l1.2-2.3c0.1-0.1,0.2-0.3,0.3-0.4l1.9-1.8c0.1-0.1,0.2-0.2,0.4-0.3l2.1-1c0.1-0.1,0.3-0.1,0.4-0.1l2.3-0.3c0.1,0,0.3,0,0.5,0
			l2.5,0.4c0.2,0,0.3,0.1,0.5,0.1l2.2,1.1c0.1,0.1,0.3,0.2,0.4,0.3l1.8,1.8c0.1,0.1,0.2,0.2,0.3,0.4l1.1,2.2
			c0.1,0.1,0.1,0.3,0.1,0.4l0.4,2.5c0,0.2,0,0.3,0,0.5l-0.5,2.7c0,0.2-0.1,0.3-0.2,0.5l-1.2,2.2c-0.1,0.1-0.2,0.3-0.3,0.4l-1.8,1.7
			c-0.1,0.1-0.2,0.2-0.4,0.3l-2.2,1.1c-0.1,0.1-0.3,0.1-0.4,0.1l-2.4,0.4C542.4,274.2,542.4,274.2,542.3,274.2z M540.3,270.9l2,0.3
			l2-0.3l1.8-0.9l1.4-1.4l0.9-1.7l0.4-2.2l-0.3-2l-0.9-1.8l-1.4-1.4l-1.8-0.9l-2-0.3l-1.9,0.3l-1.7,0.8l-1.6,1.5l-1,1.9l-0.4,2.1
			l0.3,2l0.9,1.8l1.4,1.4L540.3,270.9z"/>
	</g>
	<g>
		<path class="st0" d="M524.2,277.3c-0.1,0-0.1,0-0.2,0l-1.9-0.2c-0.1,0-0.3-0.1-0.4-0.1l-2.4-1c-0.2-0.1-0.3-0.2-0.4-0.3l-2-1.8
			c-0.1-0.1-0.2-0.2-0.3-0.4l-1.3-2.3c-0.1-0.1-0.1-0.3-0.2-0.5l-0.4-2.6c0-0.1,0-0.2,0-0.3l0-0.8c0-0.1,0-0.2,0-0.3l0.6-2.3
			c0-0.1,0.1-0.3,0.2-0.4l1.2-2c0.1-0.1,0.2-0.2,0.3-0.3l1.7-1.6c0.1-0.1,0.2-0.2,0.4-0.2l2.1-1c0.1-0.1,0.3-0.1,0.4-0.1l2.3-0.4
			c0.1,0,0.2,0,0.4,0l1.6,0.2c0.1,0,0.2,0,0.4,0.1l2.1,0.7c0.1,0,0.2,0.1,0.4,0.2l1.8,1.3c0.1,0.1,0.2,0.2,0.3,0.3l1.4,1.7
			c0.1,0.1,0.2,0.2,0.2,0.3l0.9,2c0.1,0.1,0.1,0.3,0.1,0.4l0.3,2.2c0,0.1,0,0.2,0,0.4l-0.2,1.8c0,0.1-0.1,0.3-0.1,0.4l-1,2.5
			c-0.1,0.2-0.2,0.3-0.3,0.4l-1.8,2c-0.1,0.1-0.2,0.2-0.4,0.3l-2.3,1.3c-0.1,0.1-0.3,0.1-0.5,0.2l-2.6,0.4
			C524.4,277.3,524.3,277.3,524.2,277.3z M522.7,274.2l1.5,0.2l2.2-0.4l1.9-1l1.5-1.6l0.8-2l0.2-1.4l-0.2-1.8l-0.7-1.6l-1.1-1.4
			l-1.4-1l-1.7-0.6l-1.3-0.1l-1.9,0.3l-1.7,0.8l-1.4,1.3l-1,1.6l-0.5,1.9l0,0.4l0.4,2.2l1,1.9l1.6,1.4L522.7,274.2z"/>
	</g>
</g>
</svg>
